<svg xmlns="http://www.w3.org/2000/svg"
shape-rendering="geometricPrecision"
width="4000" height="4000" viewBox="0 0 773 773"><rect width="100%" height="100%" fill="#FFFFFF" />
  <metadata>null</metadata>

<path d="
M 47.487 367.775
C 50.961 367.534 54.491 367.83 57.967 367.85
C 60.009 367.822 62.05 367.564 64.092 367.783
C 66.903 368.085 69.554 368.817 72.433 368.749
C 74.026 368.712 75.499 368.23 77.061 368.004
C 77.935 367.912 79.052 368.452 79.796 368.307
C 85.58 367.186 92.067 367.876 97.997 367.874
C 111.498 367.869 124.998 367.863 138.498 367.871
C 142.998 367.874 147.498 367.872 151.998 367.87
C 154.451 367.87 157.081 368.149 159.485 367.747
C 160.394 367.715 162.87 367.983 163.595 367.489
C 164.134 368.215 165.127 368.196 165.919 367.908
C 167.456 367.701 168.948 367.846 170.463 368.117
C 173.34 368.042 176.722 368.598 179.522 367.913
C 180.61 367.906 183.684 368.812 184.478 368.035
C 187.219 368.513 190.222 368.215 192.996 368.207
C 197.483 368.194 201.995 368.336 206.477 368.204
C 207.051 368.671 207.834 368.336 208.506 368.222
C 216.464 367.78 224.521 368.422 232.489 368.278
C 233.195 368.317 232.839 368.305 233.558 368.314
C 234.048 368.64 234.797 368.391 235.345 368.35
C 236.725 368.245 238.113 368.252 239.496 368.243
C 244.815 368.209 250.168 368.389 255.481 368.182
C 255.988 368.207 256.466 368.204 256.971 368.154
C 263.47 368.075 269.992 368.52 276.49 368.183
C 276.796 368.161 277.523 368.328 277.762 368.146
C 277.977 367.981 277.762 366.178 277.759 365.878
C 277.74 363.887 277.69 361.894 277.737 359.902
C 277.757 359.038 277.682 357.779 278.496 357.32
C 280.45 357.07 282.529 357.34 284.5 357.335
C 288.938 357.324 293.376 357.329 297.815 357.352
C 299.393 357.36 300.973 357.347 302.55 357.404
C 302.989 357.42 304.03 357.36 304.314 357.821
C 304.524 358.162 304.388 358.625 304.62 358.98
C 304.68 362.022 304.41 365.128 304.729 368.156
C 305.496 368.175 306.24 368.224 307.01 368.175
C 312.594 368.417 318.419 368.418 324.003 368.255
C 324.575 368.367 325.292 368.698 325.818 368.283
C 325.775 366.641 325.708 364.762 326.298 363.22
C 331.981 362.244 338.157 362.872 343.916 362.907
C 344.908 362.913 348.758 362.452 349.172 363.476
C 349.175 365.051 349.212 366.644 349.356 368.213
C 349.857 368.498 350.904 368.176 351.483 368.169
C 355.318 368.061 359.164 368.144 363.002 368.14
C 364.117 368.139 366.571 368.627 367.461 367.935
C 368.063 368.016 368.66 368.13 369.262 368.027
C 369.625 366.166 368.477 363.68 369.943 362.195
C 375.589 361.224 381.964 361.844 387.697 361.907
C 388.899 361.92 392.511 361.511 393.346 362.446
C 393.177 363.963 392.867 366.995 393.775 368.261
C 394.649 368.204 395.304 368.383 395.703 367.517
C 396.654 368.685 399.608 368.1 401.001 368.09
C 406.134 368.054 411.383 368.477 416.498 368.202
C 417.25 368.316 417.972 368.315 418.7 368.141
C 422.292 368.846 426.853 368.578 430.495 368.527
C 430.881 368.473 431.647 368.494 431.794 368.073
C 437.827 368.673 443.985 367.683 449.994 368.374
C 450.488 368.348 450.805 368.31 451.254 368.147
C 456.291 368.531 461.444 368.186 466.501 368.24
C 467.694 368.253 471.13 368.887 471.932 367.995
C 472.569 368.192 473.211 368.287 473.878 368.252
C 473.934 366.004 473.721 363.749 473.863 361.5
C 483.06 362.212 492.425 361.11 501.665 361.757
C 501.464 363.815 501.629 366.316 501.974 368.362
C 502.456 368.771 503.287 368.162 503.849 368.086
C 506.518 368.428 509.305 368.107 511.998 368.082
C 516.334 368.042 520.664 368.156 524.997 368.194
C 525.687 368.325 526.29 368.236 526.983 368.198
C 531.402 367.797 536.058 368.202 540.504 368.202
C 542.299 368.202 544.773 368.646 546.442 367.947
C 552.794 367.893 559.152 367.885 565.506 367.9
C 567.356 367.904 569.21 367.869 571.06 367.897
C 571.882 367.909 572.809 368.305 573.602 368.063
C 574.707 368.238 575.806 367.956 576.912 367.893
C 578.402 368.603 580.172 368.179 581.772 368.064
C 584.208 367.888 586.627 367.987 589.064 368.107
C 589.84 368.145 592.739 368.688 592.992 368.02
C 593.512 368.506 594.556 368.354 595.24 368.349
C 597.039 368.335 598.837 368.227 600.637 368.216
C 607.76 368.17 614.884 368.221 622.007 368.239
C 644.174 368.293 666.341 368.22 688.508 368.247
C 694.842 368.255 701.177 368.228 707.51 368.311
C 710.427 368.349 714.148 369.041 716.913 367.972
C 717.85 368.732 720.781 367.916 721.999 367.913
C 725.667 367.905 729.335 367.872 733.004 367.871
C 734.477 367.871 736.558 367.445 737.941 367.905
C 737.654 372.72 738.092 377.579 737.908 382.398
C 722.804 382.856 707.613 382.374 692.5 382.4
C 656.834 382.461 621.167 382.353 585.501 382.408
C 466.83 382.589 348.17 382.286 229.502 382.575
C 186.003 382.682 142.502 382.534 99.003 382.566
C 84.837 382.576 70.671 382.577 56.506 382.64
C 49.579 382.67 42.422 382.131 35.527 382.788
C 35.067 381.615 35.56 379.566 35.577 378.295
C 35.621 375.002 35.847 371.562 35.459 368.288
C 36.397 367.553 37.844 367.854 39.003 367.862
C 41.705 367.879 44.837 368.249 47.487 367.775 Z"
opacity="1" fill="rgb(179,146,84)" fill-rule="evenodd" />
<path d="
M 56.408 352.851
C 56.005 357.497 55.875 362.764 56.342 367.407
C 56.872 367.679 57.391 367.622 57.975 367.567
C 57.973 367.661 57.97 367.755 57.967 367.85
C 54.491 367.83 50.961 367.534 47.487 367.775
C 47.011 366.233 47.309 364.108 47.308 362.497
C 47.304 359.091 47.362 355.685 47.372 352.28
C 49.796 352.149 54.263 351.537 56.408 352.851 Z"
opacity="1" fill="rgb(202,174,126)" fill-rule="evenodd" />
<path d="
M 51.84 335.319
C 81.058 335.258 110.276 335.351 139.498 335.376
C 149.166 335.384 158.833 335.395 168.497 335.381
C 173.174 335.374 178.011 334.858 182.66 335.534
C 182.596 339.337 182.712 343.179 182.697 346.994
C 182.694 347.613 183.095 350.116 182.478 350.393
C 148.392 349.711 114.249 350.988 80.171 350.38
C 73.118 350.254 66.048 350.418 58.994 350.418
C 56.659 350.418 54.212 350.726 51.9 350.543
C 51.382 345.515 52.263 340.367 51.84 335.319 Z"
opacity="1" fill="rgb(67,52,44)" fill-rule="evenodd" />
<path d="
M 56.408 352.851
C 58.296 352.302 60.543 352.599 62.496 352.59
C 66.468 352.572 70.443 352.625 74.415 352.588
C 75.472 352.578 79.367 351.949 79.853 352.995
C 79.441 357.684 79.406 362.853 79.949 367.531
C 79.607 367.963 78.955 367.459 78.509 367.41
C 77.206 367.269 75.813 367.419 74.5 367.411
C 68.995 367.38 63.468 367.181 57.975 367.567
C 57.391 367.622 56.872 367.679 56.342 367.407
C 55.875 362.764 56.005 357.497 56.408 352.851 Z"
opacity="1" fill="rgb(68,49,37)" fill-rule="evenodd" />
<path d="
M 68.933 309.314
C 68.365 311.181 68.736 313.55 68.741 315.501
C 68.751 319.466 68.788 323.43 68.78 327.395
C 68.777 328.914 68.27 332.256 69.488 333.36
C 65.516 332.961 61.438 333.444 57.455 333.406
C 57.141 332.876 57.349 331.911 57.354 331.311
C 57.368 329.706 57.325 328.1 57.336 326.494
C 57.378 320.757 57.366 315.019 57.416 309.282
C 60.959 309.327 65.522 308.444 68.933 309.314 Z"
opacity="1" fill="rgb(188,155,96)" fill-rule="evenodd" />
<path d="
M 57.975 367.567
C 63.468 367.181 68.995 367.38 74.5 367.411
C 75.813 367.419 77.206 367.269 78.509 367.41
C 78.955 367.459 79.607 367.963 79.949 367.531
C 79.406 362.853 79.441 357.684 79.853 352.995
C 80.657 352.175 82.241 352.369 83.321 352.352
C 86.211 352.309 89.104 352.385 91.994 352.373
C 103.991 352.323 115.989 352.242 127.986 352.277
C 135.986 352.301 143.987 352.287 151.987 352.297
C 153.817 352.299 155.65 352.235 157.479 352.253
C 157.915 352.257 159.272 352.14 159.262 352.793
C 158.771 356.429 159.112 360.336 159.153 364.002
C 159.161 364.679 158.893 367.456 159.485 367.747
C 157.081 368.149 154.451 367.87 151.998 367.87
C 147.498 367.872 142.998 367.874 138.498 367.871
C 124.998 367.863 111.498 367.869 97.997 367.874
C 92.067 367.876 85.58 367.186 79.796 368.307
C 79.052 368.452 77.935 367.912 77.061 368.004
C 75.499 368.23 74.026 368.712 72.433 368.749
C 69.554 368.817 66.903 368.085 64.092 367.783
C 62.05 367.564 60.009 367.822 57.967 367.85
C 57.97 367.755 57.973 367.661 57.975 367.567 Z"
opacity="1" fill="rgb(201,171,122)" fill-rule="evenodd" />
<path d="
M 175.99 282.908
C 166.243 283.39 156.277 282.819 146.505 282.797
C 128.505 282.758 110.504 282.876 92.504 282.86
C 86.208 282.855 79.912 282.911 73.616 282.894
C 69.813 282.884 66.303 282.752 64.018 286.35
C 61.505 290.308 61.695 295.425 63.717 299.536
C 64.67 301.474 66.247 303.39 68.496 303.744
C 71.731 304.255 75.238 303.82 78.506 303.834
C 86.042 303.866 93.602 303.741 101.135 303.939
C 117.906 304.382 134.723 303.997 151.504 303.892
C 159.293 303.843 167.213 304.518 174.979 304.148
C 175.605 304.096 177.639 303.543 178.041 303.911
C 178.237 304.859 178.368 306.901 177.905 307.754
C 172.598 307.828 167.318 307.247 162.011 307.23
C 138.515 307.157 115.002 307.22 91.506 307.396
C 86.343 307.435 81.169 307.07 76.002 307.17
C 70.658 307.274 65.232 308.229 61.717 303.242
C 57.102 296.696 56.875 282.153 66.545 279.71
C 70.426 278.729 74.8 279.667 78.757 279.684
C 87.656 279.724 96.588 279.347 105.499 279.313
C 121.832 279.249 138.164 279.294 154.497 279.274
C 160.001 279.267 165.508 279.254 171.011 279.345
C 173.385 279.385 176.139 278.97 178.458 279.475
C 178.49 280.579 178.482 281.749 178.362 282.848
C 177.571 282.844 176.781 282.904 175.99 282.908 Z"
opacity="1" fill="rgb(184,152,98)" fill-rule="evenodd" />
<path d="
M 58.951 463.604
C 58.928 463.374 58.905 463.144 58.882 462.914
C 65.928 460.825 72.96 458.696 79.975 456.5
C 81.935 455.886 83.928 455.092 85.979 454.856
C 86.573 454.788 87.393 454.582 87.91 454.872
C 88.234 459.302 87.869 463.819 88.322 468.232
C 88.358 468.372 88.338 468.617 88.482 468.637
C 88.612 468.655 89.305 467.74 89.422 467.608
C 90.445 466.451 91.555 465.419 92.709 464.394
C 95.789 461.658 99.055 458.936 102.865 457.27
C 113.551 452.597 128.061 452.191 136.878 460.989
C 143.796 467.892 144.206 478.044 144.206 487.194
C 144.206 496.464 144.2 505.733 144.222 515.002
C 144.232 519.152 144.211 523.303 144.254 527.453
C 144.271 529.197 144.039 531.391 145.111 532.885
C 146.616 534.985 149.465 535.563 151.862 535.905
C 152.784 536.037 154.098 535.962 154.902 536.406
C 154.814 537.358 155.211 538.872 154.893 539.718
C 146.596 539.7 138.296 539.713 129.998 539.711
C 125.23 539.71 120.217 539.318 115.486 539.949
C 115.387 538.829 115.527 537.717 115.473 536.599
C 118.457 535.388 122.975 536.47 125.221 533.545
C 126.374 532.043 126.025 528.938 126.049 527.116
C 126.119 521.577 126.077 516.033 126.068 510.493
C 126.054 502.341 126.287 494.131 125.923 485.993
C 125.747 482.055 126.056 478.201 124.606 474.446
C 123.883 472.576 122.799 470.851 121.482 469.342
C 115.344 462.314 103.776 463.28 96.404 467.711
C 93.402 469.516 90.923 472.049 88.571 474.616
C 88.111 475.943 88.428 477.613 88.41 479.011
C 88.373 482.01 88.375 485.009 88.369 488.008
C 88.349 498.144 88.356 508.281 88.423 518.417
C 88.445 521.796 88.2 525.28 88.554 528.64
C 88.698 530.006 88.365 531.655 89.106 532.894
C 90.906 535.906 95.555 535.95 98.639 536.324
C 99.138 537.289 98.604 538.76 98.72 539.814
C 89.63 539.003 80.122 539.658 70.997 539.711
C 68.33 539.727 65.662 539.711 62.995 539.747
C 62.041 539.759 60.54 540.15 59.685 539.787
C 59.729 538.613 59.815 537.435 59.781 536.261
C 62.625 536.018 68.226 535.768 69.562 532.731
C 70.198 531.285 69.887 529.413 69.905 527.88
C 69.941 524.756 70.054 521.623 70.063 518.491
C 70.095 507.657 70.043 496.824 70.056 485.99
C 70.061 482.03 70.511 477.782 69.97 473.858
C 69.803 472.64 70.044 471.381 69.526 470.22
C 67.874 466.513 62.561 466.292 59.105 466.215
C 59.007 465.34 58.954 464.485 58.951 463.604 Z"
opacity="1" fill="rgb(125,100,55)" fill-rule="evenodd" />
<path d="
M 68.933 309.314
C 71.504 309.077 74.118 309.507 76.686 309.172
C 77.02 312.187 76.654 315.463 76.668 318.508
C 76.691 323.457 76.97 328.46 76.862 333.4
C 74.419 333.509 71.946 333.246 69.488 333.36
C 68.27 332.256 68.777 328.914 68.78 327.395
C 68.788 323.43 68.751 319.466 68.741 315.501
C 68.736 313.55 68.365 311.181 68.933 309.314 Z"
opacity="1" fill="rgb(70,53,40)" fill-rule="evenodd" />
<path d="
M 86.452 309.32
C 85.907 311.229 86.177 313.513 86.153 315.496
C 86.108 319.165 86.059 322.832 86.104 326.5
C 86.13 328.587 85.672 331.449 86.422 333.409
C 83.779 333.588 81.062 332.922 78.426 333.443
C 77.746 331.266 78.233 328.269 78.245 325.993
C 78.263 322.325 78.258 318.658 78.249 314.99
C 78.245 313.123 77.994 311.162 78.551 309.356
C 81.057 309.191 83.97 309.005 86.452 309.32 Z"
opacity="1" fill="rgb(67,52,38)" fill-rule="evenodd" />
<path d="
M 78.925 264.618
C 79.03 263.978 79.008 264.358 78.877 263.479
C 81.465 262.968 84.37 263.297 87.005 263.291
C 92.172 263.28 97.338 263.277 102.504 263.279
C 118.338 263.287 134.171 263.261 150.004 263.284
C 155.672 263.293 161.339 263.291 167.006 263.316
C 168.17 263.321 171.998 262.718 172.789 263.504
C 173.052 266.629 172.858 269.86 172.865 272.997
C 172.868 274.297 173.197 276.336 172.643 277.527
C 165.255 278.303 157.426 277.544 149.991 277.553
C 134.324 277.572 118.657 277.561 102.99 277.615
C 97.159 277.635 91.327 277.608 85.497 277.716
C 83.889 277.745 82.268 277.723 80.664 277.826
C 80.044 277.865 79.235 278.063 78.706 277.711
C 78.631 273.406 78.537 268.907 78.925 264.618 Z"
opacity="1" fill="rgb(184,152,89)" fill-rule="evenodd" />
<path d="
M 86.452 309.32
C 98.756 308.772 111.178 309.332 123.5 309.341
C 133.776 309.348 144.234 308.727 154.481 309.391
C 153.071 309.851 153.648 313.93 153.665 315.124
C 153.723 319.251 153.746 323.376 153.753 327.503
C 153.757 329.317 153.39 331.682 153.986 333.407
C 141.005 333.132 127.99 333.331 115.004 333.328
C 105.497 333.325 95.918 333.012 86.422 333.409
C 85.672 331.449 86.13 328.587 86.104 326.5
C 86.059 322.832 86.108 319.165 86.153 315.496
C 86.177 313.513 85.907 311.229 86.452 309.32 Z"
opacity="1" fill="rgb(187,154,91)" fill-rule="evenodd" />
<path d="
M 154.481 309.391
C 156.802 309.351 159.106 309.17 161.41 309.535
C 161.604 317.385 160.836 325.432 161.859 333.247
C 161.77 333.812 160.399 333.447 159.921 333.403
C 157.938 333.217 155.963 333.43 153.986 333.407
C 153.39 331.682 153.757 329.317 153.753 327.503
C 153.746 323.376 153.723 319.251 153.665 315.124
C 153.648 313.93 153.071 309.851 154.481 309.391 Z"
opacity="1" fill="rgb(71,53,38)" fill-rule="evenodd" />
<path d="
M 159.262 352.793
C 160.182 352.555 162.971 352.149 163.761 352.679
C 163.868 357.535 163.012 362.672 163.595 367.489
C 162.87 367.983 160.394 367.715 159.485 367.747
C 158.893 367.456 159.161 364.679 159.153 364.002
C 159.112 360.336 158.771 356.429 159.262 352.793 Z"
opacity="1" fill="rgb(66,46,31)" fill-rule="evenodd" />
<path d="
M 162.474 497.111
C 163.164 484.153 168.217 470.713 178.843 462.635
C 195.035 450.326 221.046 451.214 235.573 465.892
C 243.887 474.293 247.687 487.363 247.057 498.988
C 246.399 511.129 242.322 523.459 233.037 531.795
C 216.409 546.724 187.961 545.792 172.803 529.211
C 165.131 520.818 161.879 508.287 162.474 497.111 Z
M 182.941 484.603
C 181.73 494.918 182.548 506.072 185.139 516.111
C 186.499 521.381 188.413 526.689 191.874 530.975
C 198.468 539.143 212.344 539.954 219.72 532.379
C 223.761 528.229 225.489 521.596 226.255 516.028
C 227.754 505.124 227.444 493.852 225.248 483.067
C 224.09 477.378 222.206 471.463 218.654 466.783
C 212.147 458.208 197.938 455.762 190.253 464.382
C 185.33 469.904 183.778 477.473 182.941 484.603 Z"
opacity="1" fill="rgb(123,98,54)" fill-rule="evenodd" />
<path d="
M 169.477 309.954
C 168.442 314.588 169.244 320.253 169.237 325.001
C 169.233 327.624 168.732 330.838 169.411 333.38
C 167.422 333.637 165.388 333.21 163.375 333.546
C 163.144 325.753 162.946 317.663 163.324 309.883
C 164.494 309.271 168.424 309.077 169.477 309.954 Z"
opacity="1" fill="rgb(69,51,35)" fill-rule="evenodd" />
<path d="
M 169.954 353.491
C 169.999 357.211 169.849 360.932 169.935 364.654
C 169.955 365.523 169.532 367.633 170.463 368.117
C 168.948 367.846 167.456 367.701 165.919 367.908
C 165.365 367.373 165.637 364.983 165.597 364.139
C 165.467 361.403 165.357 358.675 165.304 355.936
C 165.283 354.879 165.057 353.514 165.616 352.595
C 166.806 352.478 169.92 351.677 169.954 353.491 Z"
opacity="1" fill="rgb(62,48,32)" fill-rule="evenodd" />
<path d="
M 169.477 309.954
C 170.072 309.278 171.073 309.296 171.905 309.269
C 173.902 309.203 175.898 309.307 177.895 309.289
C 178.485 309.284 180.008 309.014 180.317 309.519
C 179.979 317.434 180.83 325.4 180.353 333.306
C 176.836 333.249 172.876 332.839 169.411 333.38
C 168.732 330.838 169.233 327.624 169.237 325.001
C 169.244 320.253 168.442 314.588 169.477 309.954 Z"
opacity="1" fill="rgb(187,153,90)" fill-rule="evenodd" />
<path d="
M 169.954 353.491
C 170.084 353.203 170.174 352.61 170.439 352.426
C 170.828 352.154 171.869 352.271 172.333 352.242
C 174.217 352.125 176.227 352.06 178.106 352.218
C 178.18 356.132 178.089 360.068 178.052 363.99
C 178.038 365.568 177.558 367.809 179.522 367.913
C 176.722 368.598 173.34 368.042 170.463 368.117
C 169.532 367.633 169.955 365.523 169.935 364.654
C 169.849 360.932 169.999 357.211 169.954 353.491 Z"
opacity="1" fill="rgb(202,173,124)" fill-rule="evenodd" />
<path d="
M 206.477 368.204
C 201.995 368.336 197.483 368.194 192.996 368.207
C 190.222 368.215 187.219 368.513 184.478 368.035
C 184.129 362.058 184.433 355.999 184.388 350.011
C 184.26 333.177 184.313 316.342 184.404 299.505
C 184.468 287.671 184.406 275.84 184.305 264.007
C 184.247 257.318 183.951 250.533 184.319 243.853
C 189.38 243.81 194.444 243.757 199.507 243.764
C 201.736 243.767 204.375 243.389 206.552 243.808
C 207.561 252.704 206.252 262.04 206.348 270.985
C 206.59 293.661 206.666 316.372 206.616 339.041
C 206.6 346.526 206.454 354.007 206.442 361.498
C 206.439 363.167 206.376 364.84 206.421 366.508
C 206.435 367.025 206.952 368.107 206.477 368.204 Z
M 187.34 263.79
C 187.604 272.494 187.209 281.281 187.198 289.994
C 187.194 293.291 186.394 297.848 187.34 300.996
C 192.645 300.424 198.057 301.202 203.377 300.896
C 204.009 288.661 202.627 276.303 203.345 264.066
C 198.118 264.485 192.589 263.853 187.34 263.79 Z"
opacity="1" fill="rgb(67,50,42)" fill-rule="evenodd" />
<path d="
M 187.34 263.79
C 192.589 263.853 198.118 264.485 203.345 264.066
C 202.627 276.303 204.009 288.661 203.377 300.896
C 198.057 301.202 192.645 300.424 187.34 300.996
C 186.394 297.848 187.194 293.291 187.198 289.994
C 187.209 281.281 187.604 272.494 187.34 263.79 Z"
opacity="1" fill="rgb(193,160,98)" fill-rule="evenodd" />
<path d="
M 231.961 262.95
C 226.828 263.318 221.593 263.104 216.448 263.041
C 214.025 263.011 211.049 262.578 208.72 263.313
C 208.804 262.587 208.439 261.595 208.431 260.78
C 208.405 258.223 208.374 255.682 208.506 253.129
C 210.884 252.598 213.572 252.891 216.004 252.869
C 221.308 252.821 226.603 252.997 231.902 253.039
C 232.161 256.339 231.732 259.657 231.961 262.95 Z"
opacity="1" fill="rgb(191,158,96)" fill-rule="evenodd" />
<path d="
M 231.595 294.644
C 230.706 293.467 227.835 294.127 226.514 294.157
C 221.704 294.264 216.805 294.332 211.999 294.127
C 210.917 294.096 209.855 294.233 208.777 294.197
C 208.034 292.934 208.588 290.012 208.588 288.498
C 208.588 283.832 208.572 279.166 208.58 274.5
C 208.582 272.987 207.978 269.943 208.85 268.727
C 210.943 268.981 213.137 268.682 215.245 268.671
C 218.679 268.653 222.113 268.804 225.547 268.787
C 227.587 268.776 229.976 268.421 231.968 268.835
C 231.334 275.258 231.914 282.03 231.881 288.492
C 231.874 290.003 231.713 291.567 231.845 293.073
C 231.9 293.707 232.338 294.502 231.595 294.644 Z"
opacity="1" fill="rgb(70,53,43)" fill-rule="evenodd" />
<path d="
M 211.99 296.427
C 216.872 296.964 221.835 296.718 226.753 296.776
C 227.993 296.791 229.238 296.773 230.472 296.627
C 230.869 296.58 231.604 296.186 231.899 296.401
C 231.693 297.89 232.042 299.388 231.934 300.869
C 230.578 300.511 228.913 300.684 227.506 300.624
C 223.843 300.469 220.165 300.586 216.5 300.585
C 214.121 300.585 211.154 300.147 208.87 300.812
C 209.131 299.952 208.556 297.613 208.488 296.49
C 209.555 296.2 210.868 296.375 211.99 296.427 Z"
opacity="1" fill="rgb(63,46,29)" fill-rule="evenodd" />
<path d="
M 208.87 300.812
C 211.154 300.147 214.121 300.585 216.5 300.585
C 220.165 300.586 223.843 300.469 227.506 300.624
C 228.913 300.684 230.578 300.511 231.934 300.869
C 231.502 305.5 231.932 310.341 231.912 314.997
C 231.854 328.461 232.444 342.033 231.795 355.483
C 230.941 354.488 227.262 355.142 226.006 355.147
C 222.172 355.163 218.337 355.145 214.503 355.159
C 212.668 355.166 210.533 354.815 208.779 355.383
C 209.296 341.929 207.92 328.304 208.34 314.827
C 208.476 310.462 207.381 304.95 208.87 300.812 Z"
opacity="1" fill="rgb(188,155,92)" fill-rule="evenodd" />
<path d="
M 208.837 358.892
C 214.324 357.893 220.728 358.568 226.299 358.721
C 227.543 358.755 231.157 358.283 231.886 359.461
C 231.877 361.517 231.844 363.573 231.834 365.628
C 231.83 366.45 231.767 367.717 232.489 368.278
C 224.521 368.422 216.464 367.78 208.506 368.222
C 208.853 367.617 208.567 366.103 208.526 365.385
C 208.405 363.284 208.252 360.936 208.837 358.892 Z"
opacity="1" fill="rgb(187,156,94)" fill-rule="evenodd" />
<path d="
M 208.72 263.313
C 211.049 262.578 214.025 263.011 216.448 263.041
C 221.593 263.104 226.828 263.318 231.961 262.95
C 231.86 264.264 232.256 265.637 231.979 266.939
C 226.656 266.853 221.337 266.792 216.007 266.766
C 213.803 266.755 210.741 267.356 208.655 266.761
C 208.6 265.622 208.549 264.444 208.72 263.313 Z"
opacity="1" fill="rgb(64,51,32)" fill-rule="evenodd" />
<path d="
M 208.779 355.383
C 210.533 354.815 212.668 355.166 214.503 355.159
C 218.337 355.145 222.172 355.163 226.006 355.147
C 227.262 355.142 230.941 354.488 231.795 355.483
C 231.763 356.789 232.062 358.185 231.886 359.461
C 231.157 358.283 227.543 358.755 226.299 358.721
C 220.728 358.568 214.324 357.893 208.837 358.892
C 208.46 357.927 208.708 356.411 208.779 355.383 Z"
opacity="1" fill="rgb(63,47,33)" fill-rule="evenodd" />
<path d="
M 211.999 294.127
C 216.805 294.332 221.704 294.264 226.514 294.157
C 227.835 294.127 230.706 293.467 231.595 294.644
C 231.602 295.409 231.917 295.744 231.899 296.401
C 231.604 296.186 230.869 296.58 230.472 296.627
C 229.238 296.773 227.993 296.791 226.753 296.776
C 221.835 296.718 216.872 296.964 211.99 296.427
C 212.508 295.784 213.517 296.43 213.897 295.841
C 214.19 295.387 212.586 295.523 212.492 295.476
C 211.905 295.181 212.021 294.675 211.999 294.127 Z"
opacity="1" fill="rgb(217,179,128)" fill-rule="evenodd" />
<path d="
M 233.558 368.314
C 234.06 368.119 233.805 366.957 233.805 366.487
C 233.804 364.486 233.798 362.484 233.799 360.483
C 233.804 352.15 233.777 343.817 233.803 335.485
C 233.875 312.746 234.079 290.004 234.147 267.273
C 234.183 255.427 233.308 243.325 234.031 231.51
C 234.941 230.425 237.147 230.909 238.506 230.903
C 242.441 230.884 246.379 230.975 250.313 230.887
C 251.332 230.864 254.199 230.338 254.942 231.018
C 254.534 235.476 254.991 240.134 254.981 244.613
C 254.962 252.741 254.805 260.864 254.878 268.993
C 255.076 290.985 254.988 312.999 254.969 334.992
C 254.962 343.273 255.084 351.567 254.936 359.846
C 254.899 361.918 254.785 363.999 254.866 366.071
C 254.893 366.764 254.87 367.729 255.481 368.182
C 250.168 368.389 244.815 368.209 239.496 368.243
C 238.113 368.252 236.725 368.245 235.345 368.35
C 234.797 368.391 234.048 368.64 233.558 368.314 Z
M 237.504 249.924
C 237.07 264.937 237.357 279.972 237.328 294.993
C 237.317 300.66 237.246 306.325 237.252 311.993
C 237.255 314.623 237.012 317.412 237.344 320.02
C 241.92 319.592 246.752 319.786 251.345 319.937
C 251.648 303.806 251.246 287.638 251.211 271.503
C 251.2 266.67 251.164 261.837 251.171 257.004
C 251.174 254.676 250.86 251.961 251.299 249.684
C 248.065 249.906 244.743 249.72 241.5 249.694
C 240.503 249.685 238.25 249.303 237.504 249.924 Z"
opacity="1" fill="rgb(68,52,43)" fill-rule="evenodd" />
<path d="
M 237.504 249.924
C 238.25 249.303 240.503 249.685 241.5 249.694
C 244.743 249.72 248.065 249.906 251.299 249.684
C 250.86 251.961 251.174 254.676 251.171 257.004
C 251.164 261.837 251.2 266.67 251.211 271.503
C 251.246 287.638 251.648 303.806 251.345 319.937
C 246.752 319.786 241.92 319.592 237.344 320.02
C 237.012 317.412 237.255 314.623 237.252 311.993
C 237.246 306.325 237.317 300.66 237.328 294.993
C 237.357 279.972 237.07 264.937 237.504 249.924 Z"
opacity="1" fill="rgb(194,161,95)" fill-rule="evenodd" />
<path d="
M 275.917 253.968
C 273.999 253.388 271.499 253.776 269.504 253.775
C 265.55 253.772 261.429 253.45 257.497 253.828
C 256.467 253.715 256.915 252.351 256.886 251.497
C 256.812 249.362 256.798 247.233 256.827 245.096
C 256.837 244.312 256.607 243.004 257.44 242.557
C 258.398 242.043 261.259 242.455 262.369 242.437
C 266.543 242.366 271.553 241.79 275.65 242.61
C 276.298 246.258 275.789 250.268 275.917 253.968 Z"
opacity="1" fill="rgb(190,157,95)" fill-rule="evenodd" />
<path d="
M 257.497 253.828
C 261.429 253.45 265.55 253.772 269.504 253.775
C 271.499 253.776 273.999 253.388 275.917 253.968
C 275.63 256.283 275.389 259.672 276.109 261.909
C 273.558 261.274 270.803 261.454 268.192 261.427
C 264.849 261.393 261.333 261.178 258.007 261.479
C 257.636 261.475 257.192 261.802 256.898 261.575
C 256.748 261.46 256.906 259.832 256.905 259.558
C 256.902 258.061 256.215 254.854 257.497 253.828 Z"
opacity="1" fill="rgb(69,51,36)" fill-rule="evenodd" />
<path d="
M 256.878 263.443
C 257.142 262.6 260.083 262.914 261.102 262.92
C 264.754 262.942 268.41 262.912 272.062 262.96
C 272.994 262.973 275.262 262.789 275.945 263.363
C 275.617 265.483 275.736 267.819 275.911 269.951
C 272.996 269.448 269.693 269.772 266.734 269.749
C 263.511 269.724 259.952 269.347 256.841 270.249
C 257.212 268.101 256.869 265.629 256.878 263.443 Z"
opacity="1" fill="rgb(67,49,36)" fill-rule="evenodd" />
<path d="
M 256.841 270.249
C 259.952 269.347 263.511 269.724 266.734 269.749
C 269.693 269.772 272.996 269.448 275.911 269.951
C 275.608 272.743 275.897 275.682 275.896 278.494
C 275.894 283.659 275.821 288.824 275.819 293.989
C 275.81 310.987 275.975 327.989 275.925 344.984
C 275.108 344.183 272.614 344.597 271.502 344.598
C 268.336 344.6 265.171 344.634 262.005 344.633
C 260.444 344.633 258.728 344.41 257.233 344.864
C 257.696 343.318 256.962 340.379 256.908 338.642
C 256.755 333.766 256.867 328.87 256.823 323.991
C 256.725 312.993 256.784 301.996 256.728 290.998
C 256.692 284.149 256.221 277.066 256.841 270.249 Z"
opacity="1" fill="rgb(190,157,92)" fill-rule="evenodd" />
<path d="
M 257.35 356.286
C 261.508 355.115 266.881 355.777 271.175 355.894
C 272.449 355.929 274.848 355.627 275.892 356.423
C 275.734 359.224 275.989 362.036 275.918 364.84
C 275.894 365.787 275.674 367.516 276.49 368.183
C 269.992 368.52 263.47 368.075 256.971 368.154
C 256.807 367.182 257.109 366.127 257.037 365.138
C 256.844 362.467 256.288 358.789 257.35 356.286 Z"
opacity="1" fill="rgb(191,159,97)" fill-rule="evenodd" />
<path d="
M 257.233 344.864
C 258.728 344.41 260.444 344.633 262.005 344.633
C 265.171 344.634 268.336 344.6 271.502 344.598
C 272.614 344.597 275.108 344.183 275.925 344.984
C 275.942 346.366 275.839 347.773 275.949 349.148
C 275.891 349.403 274.929 349.369 274.719 349.351
C 273.635 349.259 272.592 349.022 271.498 349.005
C 266.801 348.93 261.992 349.343 257.358 349.152
C 256.68 348.53 257.149 345.809 257.233 344.864 Z"
opacity="1" fill="rgb(59,45,32)" fill-rule="evenodd" />
<path d="
M 275.892 356.423
C 274.848 355.627 272.449 355.929 271.175 355.894
C 266.881 355.777 261.508 355.115 257.35 356.286
C 257.1 354.424 257.054 352.58 257.141 350.676
C 261.381 350.249 265.887 350.381 270.154 350.423
C 271.844 350.44 274.179 350.014 275.765 350.567
C 275.689 352.485 276.133 354.528 275.892 356.423 Z"
opacity="1" fill="rgb(62,47,33)" fill-rule="evenodd" />
<path d="
M 258.451 495.607
C 259.449 482.023 265.571 468.137 277.401 460.645
C 298.05 447.568 328.741 454.316 338.995 477.286
C 342.376 484.859 343.306 493.572 342.703 501.779
C 341.701 515.413 335.083 528.208 323.568 535.772
C 309.197 545.212 288.468 544.186 274.572 534.422
C 268.244 529.975 263.621 523.08 261.126 515.84
C 258.931 509.476 257.958 502.323 258.451 495.607 Z
M 278.507 490.124
C 277.958 499.868 279.012 510.288 282.073 519.564
C 283.516 523.94 285.443 528.464 288.675 531.837
C 295.54 539 308.955 539.71 315.745 531.927
C 320.661 526.292 322.306 517.93 322.766 510.672
C 323.438 500.092 322.965 489.111 320.021 478.875
C 318.586 473.887 316.573 468.945 313.058 465.028
C 305.183 456.251 290.741 457.346 284.169 466.887
C 279.649 473.448 278.941 482.418 278.507 490.124 Z"
opacity="1" fill="rgb(123,98,53)" fill-rule="evenodd" />
<path d="
M 304.416 244.461
C 302.982 243.408 299.251 244.116 297.506 244.098
C 291.129 244.031 284.695 243.908 278.329 244.19
C 277.431 244.127 277.746 242.197 277.742 241.507
C 277.724 238.587 277.785 235.662 277.711 232.744
C 284.077 231.799 291.068 232.642 297.507 232.615
C 299.154 232.608 300.801 232.56 302.449 232.574
C 303.171 232.58 303.908 232.425 304.437 232.948
C 304.744 236.637 304.665 240.767 304.416 244.461 Z"
opacity="1" fill="rgb(187,157,97)" fill-rule="evenodd" />
<path d="
M 278.329 244.19
C 284.695 243.908 291.129 244.031 297.506 244.098
C 299.251 244.116 302.982 243.408 304.416 244.461
C 304.365 245.731 304.264 247.114 304.55 248.36
C 301.175 247.574 296.97 248.078 293.5 248.082
C 288.461 248.086 282.757 247.391 277.812 248.386
C 277.571 247.33 277.905 245.179 278.329 244.19 Z"
opacity="1" fill="rgb(64,45,26)" fill-rule="evenodd" />
<path d="
M 277.812 248.386
C 282.757 247.391 288.461 248.086 293.5 248.082
C 296.97 248.078 301.175 247.574 304.55 248.36
C 304.862 269.543 304.665 290.793 304.644 311.999
C 304.638 318.331 304.662 324.662 304.62 330.994
C 304.6 334.045 304.163 337.358 304.483 340.377
C 301.584 339.964 298.433 340.301 295.504 340.302
C 289.803 340.303 284.098 340.273 278.398 340.351
C 277.431 339.717 277.917 335.965 277.91 334.868
C 277.876 329.408 277.811 323.948 277.795 318.488
C 277.746 302.486 277.771 286.488 277.847 270.486
C 277.872 265.321 277.815 260.157 277.817 254.991
C 277.817 252.798 277.544 250.566 277.812 248.386 Z"
opacity="1" fill="rgb(189,157,93)" fill-rule="evenodd" />
<path d="
M 278.266 348.263
C 280.276 348.656 282.44 348.354 284.488 348.362
C 288.821 348.38 293.153 348.346 297.485 348.341
C 299.149 348.34 300.81 348.337 302.474 348.307
C 303.142 348.295 304.139 348.047 304.699 348.467
C 303.978 351.875 304.737 355.537 304.62 358.98
C 304.388 358.625 304.524 358.162 304.314 357.821
C 304.03 357.36 302.989 357.42 302.55 357.404
C 300.973 357.347 299.393 357.36 297.815 357.352
C 293.376 357.329 288.938 357.324 284.5 357.335
C 282.529 357.34 280.45 357.07 278.496 357.32
C 277.789 356.79 278.027 355.75 278.046 354.941
C 278.099 352.723 278 350.469 278.266 348.263 Z"
opacity="1" fill="rgb(71,55,40)" fill-rule="evenodd" />
<path d="
M 278.398 340.351
C 284.098 340.273 289.803 340.303 295.504 340.302
C 298.433 340.301 301.584 339.964 304.483 340.377
C 304.221 342.346 304.867 344.424 304.562 346.369
C 302.532 345.929 300.38 346.171 298.316 346.145
C 294.873 346.102 291.451 345.931 287.999 345.942
C 284.881 345.951 281.514 345.434 278.482 346.273
C 277.641 345.308 278.007 341.5 278.398 340.351 Z"
opacity="1" fill="rgb(68,50,33)" fill-rule="evenodd" />
<path d="
M 278.482 346.273
C 281.514 345.434 284.881 345.951 287.999 345.942
C 291.451 345.931 294.873 346.102 298.316 346.145
C 300.38 346.171 302.532 345.929 304.562 346.369
C 304.572 347.08 304.672 347.761 304.699 348.467
C 304.139 348.047 303.142 348.295 302.474 348.307
C 300.81 348.337 299.149 348.34 297.485 348.341
C 293.153 348.346 288.821 348.38 284.488 348.362
C 282.44 348.354 280.276 348.656 278.266 348.263
C 278.568 347.832 278.303 346.893 278.482 346.273 Z"
opacity="1" fill="rgb(216,187,138)" fill-rule="evenodd" />
<path d="
M 324.003 368.255
C 318.419 368.418 312.594 368.417 307.01 368.175
C 306.643 367.765 306.827 366.537 306.825 365.995
C 306.814 363.83 306.794 361.666 306.787 359.501
C 306.76 351.332 306.727 343.164 306.777 334.996
C 306.906 314.336 306.985 293.651 306.898 272.993
C 306.849 261.342 306.05 249.474 306.773 237.845
C 308.13 237.067 310.555 237.427 312.082 237.422
C 316.039 237.409 320.023 237.31 323.977 237.443
C 323.071 251.668 323.756 266.233 323.921 280.483
C 324.136 298.975 323.956 317.488 323.904 335.983
C 323.883 343.483 323.885 350.981 323.857 358.481
C 323.845 361.635 324.358 365.154 324.003 368.255 Z
M 308.809 259.345
C 307.958 270.07 309.569 280.991 308.689 291.728
C 311.457 291.652 314.233 291.653 317.004 291.65
C 318.512 291.648 320.403 291.905 321.848 291.43
C 322.036 284.828 321.755 278.125 321.744 271.505
C 321.737 267.527 322.198 263.217 321.7 259.284
C 317.401 259.216 313.105 259.278 308.809 259.345 Z"
opacity="1" fill="rgb(68,51,43)" fill-rule="evenodd" />
<path d="
M 308.809 259.345
C 313.105 259.278 317.401 259.216 321.7 259.284
C 322.198 263.217 321.737 267.527 321.744 271.505
C 321.755 278.125 322.036 284.828 321.848 291.43
C 320.403 291.905 318.512 291.648 317.004 291.65
C 314.233 291.653 311.457 291.652 308.689 291.728
C 309.569 280.991 307.958 270.07 308.809 259.345 Z"
opacity="1" fill="rgb(192,163,99)" fill-rule="evenodd" />
<path d="
M 349.356 257.949
C 347.915 257.399 345.547 257.862 344.001 257.886
C 340.037 257.948 336.072 257.911 332.109 257.944
C 330.296 257.958 327.908 257.499 326.299 258.428
C 325.963 256.268 325.958 254.173 325.932 251.964
C 326.834 251.042 330.584 251.455 331.935 251.474
C 335.498 251.524 339.058 251.706 342.623 251.723
C 344.869 251.734 347.293 251.477 349.511 251.795
C 349.846 253.643 349.432 256.055 349.356 257.949 Z"
opacity="1" fill="rgb(188,157,99)" fill-rule="evenodd" />
<path d="
M 326.308 276.484
C 331.912 275.692 338.093 276.432 343.76 276.446
C 345.108 276.449 346.47 276.411 347.814 276.526
C 348.275 276.565 349.092 276.51 349.267 276.947
C 349.756 300.435 349.311 323.994 349.216 347.486
C 348.989 346.577 344.74 346.914 343.911 346.908
C 340.363 346.882 336.815 347.083 333.263 347.086
C 331.052 347.087 328.457 346.788 326.323 347.367
C 325.829 343.405 326.139 339.382 325.98 335.369
C 325.514 323.611 325.788 311.757 325.835 299.989
C 325.855 294.99 326.019 289.981 326.025 284.989
C 326.028 282.192 325.51 279.197 326.308 276.484 Z"
opacity="1" fill="rgb(187,156,92)" fill-rule="evenodd" />
<path d="
M 326.299 258.428
C 327.908 257.499 330.296 257.958 332.109 257.944
C 336.072 257.911 340.037 257.948 344.001 257.886
C 345.547 257.862 347.915 257.399 349.356 257.949
C 349.265 259.434 349.174 261.007 349.335 262.487
C 347.282 261.736 344.653 262.26 342.51 262.26
C 337.392 262.262 331.341 261.343 326.36 262.577
C 326.211 261.264 326.124 259.736 326.299 258.428 Z"
opacity="1" fill="rgb(64,45,25)" fill-rule="evenodd" />
<path d="
M 326.36 262.577
C 331.341 261.343 337.392 262.262 342.51 262.26
C 344.653 262.26 347.282 261.736 349.335 262.487
C 349.469 263.038 349.716 263.989 349.33 264.456
C 349.121 263.877 348.622 264.163 348.087 264.17
C 346.629 264.191 345.177 264.181 343.719 264.161
C 338.023 264.085 331.933 264.707 326.302 263.804
C 326.313 263.39 326.415 262.99 326.36 262.577 Z"
opacity="1" fill="rgb(228,198,141)" fill-rule="evenodd" />
<path d="
M 326.302 263.804
C 331.933 264.707 338.023 264.085 343.719 264.161
C 345.177 264.181 346.629 264.191 348.087 264.17
C 348.622 264.163 349.121 263.877 349.33 264.456
C 349.349 266.268 349.283 268.078 349.305 269.89
C 347.01 270.344 343.886 269.767 341.51 269.758
C 336.427 269.739 331.299 270.005 326.301 270.115
C 326.423 268.019 326.203 265.905 326.302 263.804 Z"
opacity="1" fill="rgb(64,49,33)" fill-rule="evenodd" />
<path d="
M 349.267 276.947
C 349.092 276.51 348.275 276.565 347.814 276.526
C 346.47 276.411 345.108 276.449 343.76 276.446
C 338.093 276.432 331.912 275.692 326.308 276.484
C 326.002 275.307 326.027 272.629 326.609 271.55
C 331.995 272.092 337.582 271.712 342.992 271.724
C 344.555 271.727 347.916 271.026 349.19 271.768
C 349.118 273.482 349.33 275.233 349.267 276.947 Z"
opacity="1" fill="rgb(62,46,29)" fill-rule="evenodd" />
<path d="
M 326.323 347.367
C 328.457 346.788 331.052 347.087 333.263 347.086
C 336.815 347.083 340.363 346.882 343.911 346.908
C 344.74 346.914 348.989 346.577 349.216 347.486
C 348.85 352.71 348.759 358.258 349.172 363.476
C 348.758 362.452 344.908 362.913 343.916 362.907
C 338.157 362.872 331.981 362.244 326.298 363.22
C 326.548 362.273 326.209 360.573 326.206 359.51
C 326.193 355.6 325.681 351.22 326.323 347.367 Z"
opacity="1" fill="rgb(62,46,38)" fill-rule="evenodd" />
<path d="
M 351.424 248.498
C 352.07 247.473 353.599 247.666 354.678 247.637
C 357.618 247.556 360.558 247.721 363.498 247.701
C 364.264 247.696 366.766 246.924 367.226 247.465
C 366.77 251.758 366.995 256.238 367.202 260.49
C 367.095 260.166 364.231 260.419 363.656 260.441
C 359.733 260.59 355.838 260.517 351.918 260.398
C 351.356 259.075 351.629 257.153 351.639 255.736
C 351.657 253.318 351.525 250.912 351.424 248.498 Z"
opacity="1" fill="rgb(201,170,114)" fill-rule="evenodd" />
<path d="
M 367.201 298.978
C 366.838 298.347 364.362 298.637 363.674 298.611
C 360.752 298.5 357.825 298.477 354.902 298.552
C 353.754 298.582 352.493 298.448 351.693 299.393
C 352.058 296.104 351.646 292.361 351.642 288.997
C 351.632 281.418 351.555 273.814 351.726 266.238
C 356.716 265.949 361.818 265.996 366.816 266.071
C 367.329 268.691 366.912 271.819 366.914 274.496
C 366.919 282.494 366.023 291.089 367.201 298.978 Z"
opacity="1" fill="rgb(70,53,42)" fill-rule="evenodd" />
<path d="
M 351.693 299.393
C 352.493 298.448 353.754 298.582 354.902 298.552
C 357.825 298.477 360.752 298.5 363.674 298.611
C 364.362 298.637 366.838 298.347 367.201 298.978
C 367.61 314.295 367.37 329.669 367.3 344.991
C 367.276 350.326 367.18 355.658 367.308 360.991
C 367.364 363.285 367.053 365.667 367.461 367.935
C 366.571 368.627 364.117 368.139 363.002 368.14
C 359.164 368.144 355.318 368.061 351.483 368.169
C 351.784 362.833 351.367 357.344 351.381 351.987
C 351.412 340.512 351.493 329.025 351.552 317.561
C 351.583 311.534 350.759 305.388 351.693 299.393 Z"
opacity="1" fill="rgb(199,170,115)" fill-rule="evenodd" />
<path d="
M 351.918 260.398
C 355.838 260.517 359.733 260.59 363.656 260.441
C 364.231 260.419 367.095 260.166 367.202 260.49
C 367.21 261.57 367.227 262.885 366.978 263.928
C 362.143 263.93 356.597 264.663 351.869 263.896
C 351.702 262.787 351.57 261.479 351.918 260.398 Z"
opacity="1" fill="rgb(61,44,26)" fill-rule="evenodd" />
<path d="
M 351.706 462.857
C 356.917 461.121 362.252 459.747 367.465 457.995
C 371.691 456.575 376.154 454.63 380.612 454.249
C 381.953 460.26 380.795 466.707 381.427 472.788
C 381.692 473.196 382.025 472.48 382.188 472.21
C 382.919 470.994 383.642 469.78 384.435 468.6
C 386.289 465.839 388.217 463.111 390.477 460.66
C 394.441 456.358 400.131 453.28 406.121 454.037
C 408.851 454.382 411.601 455.554 412.943 458.105
C 416.004 463.925 412.146 473.192 405.438 474.209
C 403.001 474.578 400.813 474.073 398.817 472.628
C 397.544 471.707 396.456 470.153 394.937 469.638
C 389.877 467.922 385.744 473.649 383.392 477.152
C 382.768 478.081 381.806 479.022 381.391 480.065
C 380.985 481.088 381.278 482.666 381.275 483.751
C 381.268 486.334 381.27 488.917 381.268 491.499
C 381.26 500.808 381.222 510.12 381.348 519.428
C 381.387 522.295 381.431 525.151 381.571 528.009
C 381.634 529.302 381.496 530.789 382.204 531.939
C 384.372 535.465 391.421 535.96 395.142 536.236
C 395.155 536.998 394.753 539.688 395.227 540.13
C 394.282 539.631 392.561 539.866 391.501 539.835
C 388.668 539.752 385.831 539.731 382.996 539.735
C 372.736 539.75 362.111 538.985 351.896 539.987
C 351.705 538.879 351.672 537.505 351.786 536.393
C 354.755 535.844 360.622 535.411 362.352 532.555
C 363.059 531.388 362.81 529.924 362.946 528.632
C 363.297 525.293 363.118 521.859 363.11 518.505
C 363.082 507.03 362.881 495.574 362.91 484.1
C 362.919 480.839 362.972 477.577 362.936 474.316
C 362.918 472.74 363.11 470.801 362.191 469.429
C 359.746 465.779 355.22 467.08 351.694 466.263
C 351.695 465.181 351.434 463.891 351.706 462.857 Z"
opacity="1" fill="rgb(121,96,52)" fill-rule="evenodd" />
<path d="
M 393.368 248.477
C 392.24 247.595 388.453 248.343 387.007 248.353
C 381.143 248.395 375.208 248.058 369.355 248.343
C 368.451 246.503 369.124 242.895 368.983 240.803
C 370.334 239.719 373.309 240.3 375.006 240.295
C 379.173 240.285 383.339 240.271 387.506 240.276
C 389.333 240.279 391.691 239.902 393.439 240.447
C 393.209 243.082 393.282 245.834 393.368 248.477 Z"
opacity="1" fill="rgb(187,156,94)" fill-rule="evenodd" />
<path d="
M 369.355 248.343
C 375.208 248.058 381.143 248.395 387.007 248.353
C 388.453 248.343 392.24 247.595 393.368 248.477
C 393.316 249.656 393.455 250.849 393.417 252.034
C 393.141 252.373 392.377 251.92 392.018 251.871
C 390.696 251.691 389.33 251.847 388.002 251.868
C 383.505 251.941 378.999 251.935 374.501 251.949
C 373.042 251.954 370.613 252.595 369.301 252.228
C 369.198 250.997 369.106 249.557 369.355 248.343 Z"
opacity="1" fill="rgb(64,47,28)" fill-rule="evenodd" />
<path d="
M 393.453 269.778
C 391.719 268.685 388.806 269.239 386.852 269.235
C 381.464 269.222 375.837 268.751 370.484 269.337
C 368.734 269.551 369.34 267.362 369.277 265.996
C 369.103 262.25 368.82 258.017 369.323 254.303
C 369.778 253.941 370.562 254.158 371.142 254.159
C 372.592 254.163 374.039 254.21 375.489 254.207
C 381.362 254.194 387.247 254.266 393.117 254.184
C 393.844 255.166 393.387 257.29 393.394 258.484
C 393.419 262.231 393.138 266.047 393.453 269.778 Z"
opacity="1" fill="rgb(69,52,43)" fill-rule="evenodd" />
<path d="
M 370.998 271.536
C 378.246 272.691 386.181 271.476 393.44 271.353
C 393.41 272.651 393.329 274.088 393.575 275.368
C 389.11 274.898 384.49 275.212 380.002 275.18
C 376.529 275.156 372.741 274.775 369.319 275.385
C 369.204 274.844 369.029 271.941 369.415 271.554
C 369.502 271.467 370.811 271.541 370.998 271.536 Z"
opacity="1" fill="rgb(55,41,24)" fill-rule="evenodd" />
<path d="
M 369.319 275.385
C 372.741 274.775 376.529 275.156 380.002 275.18
C 384.49 275.212 389.11 274.898 393.575 275.368
C 393.176 278.461 393.42 281.86 393.404 284.996
C 393.375 290.661 393.343 296.326 393.332 301.991
C 393.295 320.99 393.592 340.012 393.295 359.006
C 392.847 358.105 388.959 358.569 388.001 358.577
C 383.386 358.613 378.766 358.682 374.152 358.647
C 372.9 358.638 370.012 358.121 369.384 359.478
C 369.298 341.16 369.306 322.822 369.199 304.498
C 369.163 298.331 369.084 292.164 369.081 285.997
C 369.079 282.483 368.852 278.875 369.319 275.385 Z"
opacity="1" fill="rgb(187,154,90)" fill-rule="evenodd" />
<path d="
M 369.384 359.478
C 370.012 358.121 372.9 358.638 374.152 358.647
C 378.766 358.682 383.386 358.613 388.001 358.577
C 388.959 358.569 392.847 358.105 393.295 359.006
C 393.326 360.123 393.513 361.346 393.346 362.446
C 392.511 361.511 388.899 361.92 387.697 361.907
C 381.964 361.844 375.589 361.224 369.943 362.195
C 369.135 361.755 369.382 360.269 369.384 359.478 Z"
opacity="1" fill="rgb(57,41,24)" fill-rule="evenodd" />
<path d="
M 370.484 269.337
C 375.837 268.751 381.464 269.222 386.852 269.235
C 388.806 269.239 391.719 268.685 393.453 269.778
C 393.442 270.14 393.716 271.11 393.44 271.353
C 386.181 271.476 378.246 272.691 370.998 271.536
C 370.643 270.894 370.384 270.067 370.484 269.337 Z"
opacity="1" fill="rgb(227,187,137)" fill-rule="evenodd" />
<path d="
M 416.202 249.473
C 415.813 249.363 416.059 249.41 415.454 249.417
C 415.174 248.622 415.974 246.267 415.146 245.808
C 413.389 245.383 411.363 245.741 409.559 245.723
C 405.432 245.68 399.538 244.612 395.793 246.476
C 395.332 242.041 395.998 237.502 395.482 233.072
C 400.521 232.5 405.92 233.083 411.002 233.064
C 412.201 233.06 415.355 232.463 416.232 233.204
C 416.079 238.618 416.159 244.056 416.202 249.473 Z"
opacity="1" fill="rgb(65,50,40)" fill-rule="evenodd" />
<path d="
M 395.793 246.476
C 399.538 244.612 405.432 245.68 409.559 245.723
C 411.363 245.741 413.389 245.383 415.146 245.808
C 415.974 246.267 415.174 248.622 415.454 249.417
C 409.102 249.207 402.639 249.689 396.303 249.048
C 395.781 248.242 395.834 247.411 395.793 246.476 Z"
opacity="1" fill="rgb(188,157,114)" fill-rule="evenodd" />
<path d="
M 396.303 249.048
C 402.639 249.689 409.102 249.207 415.454 249.417
C 416.059 249.41 415.813 249.363 416.202 249.473
C 416.198 250.462 416.268 251.488 416.184 252.471
C 415.733 251.951 415.728 251.662 414.974 251.354
C 413.514 250.769 411.502 251.166 409.942 251.111
C 407.1 251.011 404.33 251.109 401.493 251.125
C 400.053 251.134 398.365 250.871 396.972 251.214
C 396.524 251.779 396.41 252.423 395.979 252.955
C 395.896 252.143 395.324 249.287 396.303 249.048 Z"
opacity="1" fill="rgb(35,27,17)" fill-rule="evenodd" />
<path d="
M 395.979 252.955
C 396.41 252.423 396.524 251.779 396.972 251.214
C 398.365 250.871 400.053 251.134 401.493 251.125
C 404.33 251.109 407.1 251.011 409.942 251.111
C 411.502 251.166 413.514 250.769 414.974 251.354
C 415.728 251.662 415.733 251.951 416.184 252.471
C 416.157 253.136 416.186 253.802 416.21 254.468
C 416.111 254.259 415.28 254.679 414.961 254.706
C 413.753 254.808 412.511 254.753 411.299 254.752
C 406.127 254.749 400.932 254.665 395.764 254.817
C 395.809 254.198 395.892 253.57 395.979 252.955 Z"
opacity="1" fill="rgb(188,159,108)" fill-rule="evenodd" />
<path d="
M 395.764 254.817
C 400.932 254.665 406.127 254.749 411.299 254.752
C 412.511 254.753 413.753 254.808 414.961 254.706
C 415.28 254.679 416.111 254.259 416.21 254.468
C 416.51 262.573 416.151 270.76 416.141 278.874
C 416.116 299.414 415.811 319.953 415.879 340.495
C 415.902 347.416 415.934 354.338 415.955 361.26
C 415.96 363.006 415.876 364.761 415.943 366.506
C 415.964 367.051 416.014 367.902 416.498 368.202
C 411.383 368.477 406.134 368.054 401.001 368.09
C 399.608 368.1 396.654 368.685 395.703 367.517
C 395.447 360.532 395.742 353.491 395.753 346.501
C 395.775 332.831 395.768 319.161 395.773 305.491
C 395.78 288.665 394.821 271.618 395.764 254.817 Z
M 398.751 290.756
C 398.981 305.652 398.72 320.596 398.677 335.498
C 398.663 340.165 398.636 344.832 398.637 349.5
C 398.638 351.584 398.279 354.147 398.73 356.174
C 403.439 355.611 408.294 356.403 413.03 356.019
C 413.607 354.797 413.161 352.357 413.167 351.006
C 413.186 347.004 413.219 343.003 413.24 339.001
C 413.297 327.833 413.288 316.664 413.292 305.496
C 413.293 302.162 413.317 298.829 413.317 295.495
C 413.317 293.964 413.681 292.086 413.239 290.62
C 408.607 290.064 403.414 290.548 398.751 290.756 Z"
opacity="1" fill="rgb(67,50,41)" fill-rule="evenodd" />
<path d="
M 398.751 290.756
C 403.414 290.548 408.607 290.064 413.239 290.62
C 413.681 292.086 413.317 293.964 413.317 295.495
C 413.317 298.829 413.293 302.162 413.292 305.496
C 413.288 316.664 413.297 327.833 413.24 339.001
C 413.219 343.003 413.186 347.004 413.167 351.006
C 413.161 352.357 413.607 354.797 413.03 356.019
C 408.294 356.403 403.439 355.611 398.73 356.174
C 398.279 354.147 398.638 351.584 398.637 349.5
C 398.636 344.832 398.663 340.165 398.677 335.498
C 398.72 320.596 398.981 305.652 398.751 290.756 Z"
opacity="1" fill="rgb(190,159,96)" fill-rule="evenodd" />
<path d="
M 430.495 368.527
C 426.853 368.578 422.292 368.846 418.7 368.141
C 417.831 357.538 418.525 346.626 418.52 335.992
C 418.51 316.656 418.376 297.321 418.359 277.985
C 418.351 268.651 418.359 259.316 418.393 249.982
C 418.402 247.317 418.432 244.648 418.391 241.984
C 418.368 240.481 418.131 238.901 418.619 237.463
C 422.131 237.463 425.662 237.378 429.177 237.32
C 429.867 240.415 429.241 244.323 429.232 247.499
C 429.213 254.66 429.147 261.822 429.121 268.982
C 429.039 291.648 429.193 314.319 429.204 336.986
C 429.207 344.932 429.215 352.879 429.177 360.824
C 429.167 363.038 428.222 367.68 430.495 368.527 Z"
opacity="1" fill="rgb(67,50,43)" fill-rule="evenodd" />
<path d="
M 419.426 496.606
C 420.283 491.289 420.884 486.095 423.071 481.09
C 429.853 465.566 444.082 456.117 460.781 454.401
C 466.076 453.857 471.429 454.131 476.66 455.091
C 477.886 455.316 479.097 455.549 480.296 455.889
C 480.514 455.951 481.447 456.049 481.58 456.247
C 481.354 449.175 481.368 442.085 481.311 435
C 481.291 432.438 482.026 428.48 480.179 426.416
C 477.773 423.726 472.606 423.687 469.279 423.707
C 469.218 422.554 469.244 421.41 469.092 420.266
C 475.951 418.687 482.757 416.824 489.542 414.95
C 492.75 414.065 496.145 412.55 499.53 412.792
C 499.94 422.655 499.612 432.618 499.615 442.499
C 499.619 460.331 499.684 478.165 499.662 495.997
C 499.653 503.424 499.675 510.851 499.585 518.278
C 499.549 521.279 498.856 525.72 500.411 528.418
C 502.107 531.36 505.671 531.708 508.724 531.738
C 509.581 531.746 511.405 531.374 512.11 531.818
C 512.186 532.972 512.251 534.121 512.297 535.277
C 509.132 535.585 505.895 536.722 502.82 537.508
C 496.365 539.16 489.89 540.774 483.449 542.455
C 482.615 541.608 482.734 539.717 482.647 538.581
C 482.404 535.406 482.093 532.217 482.068 529.032
C 479.855 530.398 478.136 532.792 476.072 534.411
C 471.112 538.303 465.182 541.472 458.906 542.465
C 455.314 543.034 451.561 542.945 447.997 542.241
C 444.616 541.573 441.236 540.575 438.192 538.927
C 423.053 530.731 418.14 512.773 419.426 496.606 Z
M 438.968 492.623
C 438.039 502.903 439.641 514.353 445.776 522.906
C 454.671 535.306 471.902 534.811 481.806 523.886
C 482.325 522.125 481.837 519.829 481.835 517.998
C 481.831 513.832 481.849 509.666 481.832 505.5
C 481.778 492.04 482.297 478.352 481.5 464.921
C 480.909 463.67 478.876 462.817 477.698 462.223
C 474.01 460.364 469.936 459.627 465.821 459.781
C 453.5 460.242 444.945 469.548 441.207 480.617
C 439.871 484.576 439.79 488.598 438.968 492.623 Z"
opacity="1" fill="rgb(124,98,54)" fill-rule="evenodd" />
<path d="
M 448.97 263.871
C 446.718 263.493 444.278 263.812 442.001 263.828
C 438.624 263.852 435.226 263.692 431.854 263.829
C 431.408 263.264 431.625 261.576 431.591 260.843
C 431.501 258.91 431.569 257.001 431.536 255.07
C 431.516 253.865 431.214 252.651 431.942 251.636
C 437.53 251.365 443.249 252.127 448.807 251.644
C 449.153 252.589 448.919 253.986 448.926 254.998
C 448.943 257.914 448.617 260.978 448.97 263.871 Z"
opacity="1" fill="rgb(188,154,95)" fill-rule="evenodd" />
<path d="
M 431.854 263.829
C 435.226 263.692 438.624 263.852 442.001 263.828
C 444.278 263.812 446.718 263.493 448.97 263.871
C 448.981 265.022 449.004 266.265 449.223 267.397
C 447.839 266.463 445.411 266.842 443.794 266.904
C 439.871 267.052 435.85 266.556 431.987 267.258
C 431.088 266.795 431.55 264.588 431.854 263.829 Z"
opacity="1" fill="rgb(58,44,25)" fill-rule="evenodd" />
<path d="
M 432.517 269.272
C 436.462 269.529 440.541 269.242 444.5 269.231
C 445.691 269.227 447.983 268.803 448.976 269.414
C 448.469 273.147 448.86 277.216 448.88 280.985
C 448.905 285.76 448.546 290.621 449.005 295.378
C 447.391 294.79 445.205 295.199 443.499 295.195
C 439.719 295.186 435.631 294.742 431.894 295.302
C 431.436 295.094 431.614 294.316 431.597 293.857
C 431.541 292.406 431.58 290.95 431.584 289.498
C 431.598 284.253 431.684 278.984 431.497 273.743
C 431.457 272.599 431.349 271.408 431.458 270.266
C 431.494 269.893 431.314 269.352 431.633 269.155
C 431.886 269 432.223 269.233 432.517 269.272 Z"
opacity="1" fill="rgb(64,49,41)" fill-rule="evenodd" />
<path d="
M 431.894 295.302
C 435.631 294.742 439.719 295.186 443.499 295.195
C 445.205 295.199 447.391 294.79 449.005 295.378
C 448.837 297.105 449.225 299.031 449.244 300.795
C 449.282 304.379 449.197 307.967 449.188 311.551
C 449.155 324.532 449.202 337.514 449.173 350.495
C 449.164 354.945 449.222 359.398 449.174 363.848
C 449.16 365.185 448.708 367.477 449.994 368.374
C 443.985 367.683 437.827 368.673 431.794 368.073
C 431.088 366.743 431.424 364.198 431.414 362.697
C 431.388 358.628 431.412 354.556 431.424 350.486
C 431.462 337.426 431.289 324.35 431.396 311.293
C 431.425 307.788 431.369 304.284 431.362 300.779
C 431.359 298.923 431.145 297.03 431.894 295.302 Z"
opacity="1" fill="rgb(191,159,96)" fill-rule="evenodd" />
<path d="
M 431.987 267.258
C 435.85 266.556 439.871 267.052 443.794 266.904
C 445.411 266.842 447.839 266.463 449.223 267.397
C 449.226 268.059 449.355 268.843 448.976 269.414
C 447.983 268.803 445.691 269.227 444.5 269.231
C 440.541 269.242 436.462 269.529 432.517 269.272
C 431.917 268.792 431.926 267.972 431.987 267.258 Z"
opacity="1" fill="rgb(226,189,133)" fill-rule="evenodd" />
<path d="
M 471.932 367.995
C 471.13 368.887 467.694 368.253 466.501 368.24
C 461.444 368.186 456.291 368.531 451.254 368.147
C 450.648 364.09 451.175 359.601 451.196 355.496
C 451.238 347.331 451.242 339.164 451.23 330.998
C 451.197 307.993 451.389 284.997 451.093 261.999
C 451.014 255.894 451.304 249.773 451.135 243.675
C 457.967 243.185 465.06 243.134 471.897 243.498
C 471.486 249.242 471.969 255.227 471.97 261
C 471.971 272.841 471.929 284.673 471.962 296.509
C 472.008 312.836 471.912 329.168 471.912 345.496
C 471.912 352.97 471.536 360.533 471.932 367.995 Z
M 452.963 278.557
C 452.863 279.233 452.616 280.414 452.927 280.996
C 454.097 280.565 455.733 280.899 456.999 280.892
C 460.291 280.874 463.579 280.951 466.871 280.97
C 467.889 280.976 469.607 281.495 470.531 281.127
C 470.733 280.116 470.387 278.937 470.346 277.908
C 468.474 277.47 466.179 277.784 464.261 277.788
C 460.575 277.795 456.739 277.538 453.085 278.023
C 453.044 278.201 453.003 278.379 452.963 278.557 Z
M 452.814 282.901
C 453.018 284.701 454.411 284.477 456.029 284.38
C 459.159 284.191 462.379 284.311 465.516 284.365
C 466.689 284.385 468.265 285.245 469.338 284.78
C 469.787 284.302 470.042 283.624 470.089 282.979
C 466.727 281.865 462.038 282.759 458.509 282.68
C 456.662 282.638 454.581 282.276 452.814 282.901 Z
M 454.509 286.907
C 459.344 287.018 464.204 286.978 469.037 286.958
C 469.618 287.51 471.116 287.201 470.201 286.446
C 465.482 285.262 459.874 285.421 455.033 285.948
C 453.473 286.098 452.062 286.848 454.509 286.907 Z
M 452.841 288.271
C 452.639 289.208 452.438 290.267 452.842 291.17
C 457.092 290.88 461.525 291.188 465.8 291.141
C 467.213 291.125 468.87 291.428 470.25 291.155
C 470.49 290.299 470.038 289.232 469.804 288.408
C 469.163 287.669 466.675 288.104 465.708 288.125
C 461.471 288.217 457.02 287.646 452.841 288.271 Z
M 452.823 292.818
C 452.877 293.625 452.309 295.387 452.94 295.958
C 458.529 294.853 464.717 296.543 470.398 295.793
C 470.637 295.098 470.359 293.606 469.952 293.016
C 466.447 292.351 462.521 292.784 458.964 292.766
C 456.923 292.755 454.841 292.39 452.823 292.818 Z"
opacity="1" fill="rgb(67,49,41)" fill-rule="evenodd" />
<path d="
M 452.963 278.557
C 453.003 278.379 453.044 278.201 453.085 278.023
C 456.739 277.538 460.575 277.795 464.261 277.788
C 466.179 277.784 468.474 277.47 470.346 277.908
C 470.387 278.937 470.733 280.116 470.531 281.127
C 469.607 281.495 467.889 280.976 466.871 280.97
C 463.579 280.951 460.291 280.874 456.999 280.892
C 455.733 280.899 454.097 280.565 452.927 280.996
C 452.616 280.414 452.863 279.233 452.963 278.557 Z"
opacity="1" fill="rgb(187,159,111)" fill-rule="evenodd" />
<path d="
M 452.814 282.901
C 454.581 282.276 456.662 282.638 458.509 282.68
C 462.038 282.759 466.727 281.865 470.089 282.979
C 470.042 283.624 469.787 284.302 469.338 284.78
C 468.265 285.245 466.689 284.385 465.516 284.365
C 462.379 284.311 459.159 284.191 456.029 284.38
C 454.411 284.477 453.018 284.701 452.814 282.901 Z"
opacity="1" fill="rgb(184,154,107)" fill-rule="evenodd" />
<path d="
M 452.841 288.271
C 457.02 287.646 461.471 288.217 465.708 288.125
C 466.675 288.104 469.163 287.669 469.804 288.408
C 470.038 289.232 470.49 290.299 470.25 291.155
C 468.87 291.428 467.213 291.125 465.8 291.141
C 461.525 291.188 457.092 290.88 452.842 291.17
C 452.438 290.267 452.639 289.208 452.841 288.271 Z"
opacity="1" fill="rgb(186,157,104)" fill-rule="evenodd" />
<path d="
M 452.823 292.818
C 454.841 292.39 456.923 292.755 458.964 292.766
C 462.521 292.784 466.447 292.351 469.952 293.016
C 470.359 293.606 470.637 295.098 470.398 295.793
C 464.717 296.543 458.529 294.853 452.94 295.958
C 452.309 295.387 452.877 293.625 452.823 292.818 Z"
opacity="0.996" fill="rgb(186,153,107)" fill-rule="evenodd" />
<path d="
M 455.033 285.948
C 459.874 285.421 465.482 285.262 470.201 286.446
C 469.801 286.876 469.622 286.919 469.037 286.958
C 464.204 286.978 459.344 287.018 454.509 286.907
C 454.709 286.592 454.883 286.291 455.033 285.948 Z"
opacity="1" fill="rgb(214,193,139)" fill-rule="evenodd" />
<path d="
M 469.037 286.958
C 469.622 286.919 469.801 286.876 470.201 286.446
C 471.116 287.201 469.618 287.51 469.037 286.958 Z"
opacity="0.996" fill="rgb(146,128,93)" fill-rule="evenodd" />
<path d="
M 501.371 239.467
C 500.797 239.044 499.695 239.258 498.997 239.283
C 497.335 239.344 495.668 239.348 494.005 239.349
C 487.454 239.354 480.874 239.176 474.327 239.34
C 473.258 238.289 473.696 234.288 473.79 232.892
C 482.989 232.953 492.538 232.18 501.696 232.938
C 502.304 234.952 501.52 237.449 501.371 239.467 Z"
opacity="1" fill="rgb(186,156,93)" fill-rule="evenodd" />
<path d="
M 474.348 243.441
C 476.602 242.904 478.976 243.062 481.279 243.005
C 485.878 242.89 490.409 242.899 495.002 243.1
C 496.897 243.183 499.73 242.541 501.453 243.38
C 501.403 244.425 501.309 245.414 501.387 246.462
C 500.967 246.083 500.062 246.253 499.49 246.258
C 497.831 246.272 496.171 246.297 494.51 246.294
C 487.84 246.285 480.964 246.851 474.323 246.271
C 474.566 245.485 473.988 244.485 474.348 243.441 Z"
opacity="1" fill="rgb(197,167,114)" fill-rule="evenodd" />
<path d="
M 474.323 246.271
C 480.964 246.851 487.84 246.285 494.51 246.294
C 496.171 246.297 497.831 246.272 499.49 246.258
C 500.062 246.253 500.967 246.083 501.387 246.462
C 501.473 254.584 501.362 262.765 501.576 270.864
C 492.348 271.029 483.09 270.853 473.87 271.065
C 474.41 265.338 474.001 259.333 473.957 253.58
C 473.941 251.448 473.381 248.209 474.323 246.271 Z"
opacity="1" fill="rgb(67,50,39)" fill-rule="evenodd" />
<path d="
M 473.87 271.065
C 483.09 270.853 492.348 271.029 501.576 270.864
C 501.916 273.194 501.676 275.683 501.67 278.044
C 501.656 283.026 501.577 288.007 501.571 292.989
C 501.553 307.656 501.586 322.323 501.611 336.99
C 501.619 341.752 501.649 346.516 501.649 351.278
C 501.648 353.199 501.182 355.556 501.574 357.417
C 492.571 357.52 483.508 357.844 474.517 357.447
C 473.321 356.749 473.791 353.478 473.799 352.237
C 473.833 346.986 473.793 341.735 473.788 336.485
C 473.774 321.324 473.948 306.156 473.839 290.996
C 473.809 286.836 473.805 282.661 473.905 278.502
C 473.961 276.193 474.359 273.313 473.87 271.065 Z"
opacity="1" fill="rgb(185,153,89)" fill-rule="evenodd" />
<path d="
M 474.517 357.447
C 483.508 357.844 492.571 357.52 501.574 357.417
C 501.399 358.811 501.653 360.342 501.665 361.757
C 492.425 361.11 483.06 362.212 473.863 361.5
C 473.942 360.359 473.546 358.161 474.517 357.447 Z"
opacity="1" fill="rgb(63,47,28)" fill-rule="evenodd" />
<path d="
M 474.327 239.34
C 480.874 239.176 487.454 239.354 494.005 239.349
C 495.668 239.348 497.335 239.344 498.997 239.283
C 499.695 239.258 500.797 239.044 501.371 239.467
C 501.391 240.766 501.479 242.087 501.453 243.38
C 499.73 242.541 496.897 243.183 495.002 243.1
C 490.409 242.899 485.878 242.89 481.279 243.005
C 478.976 243.062 476.602 242.904 474.348 243.441
C 473.718 242.425 474.035 240.455 474.327 239.34 Z"
opacity="1" fill="rgb(60,44,27)" fill-rule="evenodd" />
<path d="
M 524.997 368.194
C 520.664 368.156 516.334 368.042 511.998 368.082
C 509.305 368.107 506.518 368.428 503.849 368.086
C 503.289 363.889 503.689 359.209 503.904 354.986
C 504.09 351.348 503.826 347.635 503.805 343.991
C 503.694 325.157 503.923 306.322 503.824 287.489
C 503.764 275.993 503.634 264.487 503.818 252.992
C 503.892 248.358 502.909 242.898 503.968 238.383
C 508.646 238.269 513.326 238.235 518.007 238.249
C 520.126 238.255 522.605 237.91 524.675 238.324
C 524.773 250.938 524.427 263.551 524.457 276.168
C 524.504 295.768 524.777 315.387 524.724 334.995
C 524.702 343.341 524.459 351.69 524.638 360.002
C 524.681 362.002 524.584 364.004 524.646 366.003
C 524.666 366.648 524.546 367.683 524.997 368.194 Z
M 505.017 355.172
C 504.966 355.794 504.839 355.581 505.23 355.884
C 511.147 355.008 517.439 356.358 523.404 355.859
C 523.864 354.999 523.473 352.475 523.438 351.434
C 522.757 350.851 520.417 351.349 519.504 351.344
C 516.003 351.328 512.502 351.347 509.001 351.316
C 507.827 351.306 506.054 350.929 505.11 351.724
C 505.185 352.859 505.157 354.043 505.017 355.172 Z
M 506.872 249.813
C 506.797 256.204 506.809 262.598 506.785 268.992
C 506.772 272.356 506.362 276.121 506.874 279.439
C 511.637 278.872 516.586 279.393 521.376 279.299
C 521.668 272.563 521.356 265.743 521.36 258.999
C 521.361 256.377 522.14 252.248 521.285 249.786
C 516.664 249.55 511.458 249.189 506.872 249.813 Z"
opacity="1" fill="rgb(67,51,43)" fill-rule="evenodd" />
<path d="
M 505.017 355.172
C 505.157 354.043 505.185 352.859 505.11 351.724
C 506.054 350.929 507.827 351.306 509.001 351.316
C 512.502 351.347 516.003 351.328 519.504 351.344
C 520.417 351.349 522.757 350.851 523.438 351.434
C 523.473 352.475 523.864 354.999 523.404 355.859
C 517.439 356.358 511.147 355.008 505.23 355.884
C 504.839 355.581 504.966 355.794 505.017 355.172 Z"
opacity="1" fill="rgb(194,166,116)" fill-rule="evenodd" />
<path d="
M 506.872 249.813
C 511.458 249.189 516.664 249.55 521.285 249.786
C 522.14 252.248 521.361 256.377 521.36 258.999
C 521.356 265.743 521.668 272.563 521.376 279.299
C 516.586 279.393 511.637 278.872 506.874 279.439
C 506.362 276.121 506.772 272.356 506.785 268.992
C 506.809 262.598 506.797 256.204 506.872 249.813 Z"
opacity="1" fill="rgb(193,162,98)" fill-rule="evenodd" />
<path d="
M 519.445 493.595
C 520.905 480.529 527.149 467.95 538.383 460.648
C 560.186 446.478 592.844 455.749 601.207 481.063
C 603.518 488.06 604.315 495.618 603.558 502.954
C 602.219 515.927 596.198 528.174 585.111 535.474
C 569.557 545.716 546.281 544.669 532.293 532.087
C 527.099 527.415 523.582 521.32 521.449 514.727
C 519.261 507.968 518.658 500.646 519.445 493.595 Z
M 539.43 484.106
C 538.956 488.526 539.011 493.068 539.181 497.504
C 539.623 509.091 541.174 522.225 548.865 531.479
C 555.244 539.155 568.843 539.818 575.946 532.734
C 580.578 528.114 582.433 520.942 583.215 514.649
C 584.647 503.125 584.194 490.509 580.916 479.331
C 579.548 474.666 577.884 470.048 574.795 466.211
C 568.05 457.836 554.29 456.05 546.681 464.431
C 541.922 469.673 540.164 477.262 539.43 484.106 Z"
opacity="1" fill="rgb(123,98,54)" fill-rule="evenodd" />
<path d="
M 526.742 340.797
C 531.254 339.939 536.41 340.596 541 340.611
C 541.962 340.615 545.175 340.206 545.806 340.918
C 545.685 342.723 545.705 344.632 545.82 346.435
C 544.951 345.502 542.407 345.83 541.235 345.832
C 536.655 345.844 531.383 345.101 526.962 346.22
C 526.118 345.637 526.647 341.826 526.742 340.797 Z"
opacity="1" fill="rgb(61,47,30)" fill-rule="evenodd" />
<path d="
M 526.923 356.446
C 531.491 355.871 536.4 356.232 541.003 356.274
C 542.146 356.285 544.953 355.776 545.843 356.445
C 545.788 359.424 545.819 362.419 545.843 365.4
C 545.848 366.12 545.56 367.824 546.442 367.947
C 544.773 368.646 542.299 368.202 540.504 368.202
C 536.058 368.202 531.402 367.797 526.983 368.198
C 526.313 367.424 526.491 366.119 526.419 365.156
C 526.236 362.669 525.647 358.701 526.923 356.446 Z"
opacity="1" fill="rgb(192,161,100)" fill-rule="evenodd" />
<path d="
M 545.943 248.002
C 546.051 246.686 542.487 247.269 541.505 247.275
C 536.605 247.307 531.656 247.034 526.768 247.333
C 526.821 244.552 526.798 241.771 526.814 238.988
C 526.82 237.856 526.547 236.515 526.818 235.436
C 530.874 235.333 534.948 235.444 539.007 235.45
C 541.238 235.454 543.757 235.14 545.946 235.579
C 546.039 238.423 546.044 241.28 546.09 244.136
C 546.109 245.318 546.401 246.892 545.943 248.002 Z"
opacity="1" fill="rgb(189,155,90)" fill-rule="evenodd" />
<path d="
M 526.768 247.333
C 531.656 247.034 536.605 247.307 541.505 247.275
C 542.487 247.269 546.051 246.686 545.943 248.002
C 546.12 250.594 545.999 253.185 546.073 255.756
C 544.228 254.973 541.858 255.309 539.898 255.322
C 535.74 255.351 531.599 255.315 527.464 255.584
C 527.223 255.566 526.859 255.777 526.739 255.567
C 526.559 255.252 526.795 253.912 526.792 253.498
C 526.781 251.443 526.651 249.386 526.768 247.333 Z"
opacity="1" fill="rgb(68,51,37)" fill-rule="evenodd" />
<path d="
M 527.464 255.584
C 531.599 255.315 535.74 255.351 539.898 255.322
C 541.858 255.309 544.228 254.973 546.073 255.756
C 546.253 256.471 546.173 257.238 546.092 257.966
C 545.137 256.823 542.523 257.264 540.931 257.261
C 536.278 257.254 531.325 257.685 526.719 257.158
C 527.234 256.944 527.266 256.076 527.464 255.584 Z"
opacity="1" fill="rgb(231,188,143)" fill-rule="evenodd" />
<path d="
M 526.719 257.158
C 531.325 257.685 536.278 257.254 540.931 257.261
C 542.523 257.264 545.137 256.823 546.092 257.966
C 545.905 260.277 546.11 262.643 546.16 264.957
C 546.134 264.015 542.683 264.397 541.894 264.384
C 537.039 264.302 531.672 263.73 526.871 264.454
C 526.246 262.34 526.638 259.354 526.719 257.158 Z"
opacity="1" fill="rgb(65,49,34)" fill-rule="evenodd" />
<path d="
M 526.871 264.454
C 531.672 263.73 537.039 264.302 541.894 264.384
C 542.683 264.397 546.134 264.015 546.16 264.957
C 545.553 271.17 546.142 277.679 546.124 283.923
C 546.086 296.821 546.023 309.718 545.95 322.616
C 545.927 326.754 545.891 330.892 545.864 335.03
C 545.852 336.956 546.088 339.014 545.806 340.918
C 545.175 340.206 541.962 340.615 541 340.611
C 536.41 340.596 531.254 339.939 526.742 340.797
C 527.285 339.469 526.701 336.533 526.703 335.001
C 526.709 330 526.719 324.999 526.72 319.997
C 526.723 307.663 526.741 295.329 526.75 282.995
C 526.754 276.906 526.158 270.503 526.871 264.454 Z"
opacity="1" fill="rgb(188,156,93)" fill-rule="evenodd" />
<path d="
M 526.962 346.22
C 531.383 345.101 536.655 345.844 541.235 345.832
C 542.407 345.83 544.951 345.502 545.82 346.435
C 545.838 347.127 545.781 347.814 545.703 348.502
C 545.712 347.729 542.099 348.071 541.395 348.093
C 537.969 348.199 534.555 348.081 531.124 348.181
C 529.716 348.221 528.03 347.937 526.7 348.266
C 527.016 347.621 526.816 346.933 526.962 346.22 Z"
opacity="1" fill="rgb(225,195,142)" fill-rule="evenodd" />
<path d="
M 526.7 348.266
C 528.03 347.937 529.716 348.221 531.124 348.181
C 534.555 348.081 537.969 348.199 541.395 348.093
C 542.099 348.071 545.712 347.729 545.703 348.502
C 545.848 351.143 545.631 353.802 545.843 356.445
C 544.953 355.776 542.146 356.285 541.003 356.274
C 536.4 356.232 531.491 355.871 526.923 356.446
C 526.428 355.835 526.632 354.774 526.643 354.003
C 526.669 352.091 526.67 350.178 526.7 348.266 Z"
opacity="1" fill="rgb(69,52,37)" fill-rule="evenodd" />
<path d="
M 576.912 367.893
C 575.806 367.956 574.707 368.238 573.602 368.063
C 571.654 360.831 570.233 353.453 568.454 346.175
C 563.838 327.295 559.51 308.319 555.124 289.389
C 553.924 284.21 553.02 278.894 551.676 273.765
C 550.825 268.586 549.269 263.486 548.185 258.357
C 552.276 256.83 556.875 256.193 561.124 255.158
C 562.01 254.942 564.695 253.897 565.413 254.377
C 566.764 259.986 567.875 265.654 569.237 271.253
C 573.315 290.445 577.876 309.611 582.502 328.695
C 584.605 337.372 586.702 346.034 588.541 354.772
C 589.217 357.983 590.285 361.252 590.81 364.463
C 590.099 365.09 587.973 365.161 586.989 365.387
C 583.765 366.13 580.152 367.585 576.912 367.893 Z
M 552.866 273.35
C 553.123 275.417 555.033 274.439 556.593 274.159
C 559.131 273.704 561.775 272.997 564.256 272.27
C 565.439 271.923 567.028 271.801 568.034 271.047
C 567.985 270.253 567.921 269.549 567.466 268.877
C 566.368 268.664 564.994 269.464 563.923 269.747
C 561.454 270.398 558.955 270.974 556.498 271.663
C 555.18 272.033 553.805 272.287 552.866 273.35 Z
M 554.44 276.986
C 554.347 277.123 554.255 277.26 554.162 277.397
C 555.129 282.015 555.877 287.107 557.423 291.559
C 560.295 290.742 563.169 289.895 566.072 289.196
C 567.774 288.787 570.021 288.759 571.582 288.029
C 571.684 286.298 570.405 283.539 569.893 281.841
C 569.068 279.102 568.983 276.069 567.97 273.404
C 563.47 274.475 558.814 275.477 554.44 276.986 Z
M 557.926 293.848
C 557.837 294.017 557.748 294.186 557.659 294.355
C 557.771 294.765 557.822 295.633 558.459 295.634
C 559.957 295.637 561.608 294.859 563.046 294.488
C 565.213 293.928 567.422 293.541 569.589 292.971
C 570.543 292.719 572.313 292.708 572.933 291.874
C 573.12 289.606 571.102 290.095 569.548 290.468
C 565.679 291.395 561.617 292.345 557.926 293.848 Z"
opacity="1" fill="rgb(69,51,42)" fill-rule="evenodd" />
<path d="
M 552.866 273.35
C 553.805 272.287 555.18 272.033 556.498 271.663
C 558.955 270.974 561.454 270.398 563.923 269.747
C 564.994 269.464 566.368 268.664 567.466 268.877
C 567.921 269.549 567.985 270.253 568.034 271.047
C 567.028 271.801 565.439 271.923 564.256 272.27
C 561.775 272.997 559.131 273.704 556.593 274.159
C 555.033 274.439 553.123 275.417 552.866 273.35 Z"
opacity="1" fill="rgb(194,168,124)" fill-rule="evenodd" />
<path d="
M 554.44 276.986
C 558.814 275.477 563.47 274.475 567.97 273.404
C 568.983 276.069 569.068 279.102 569.893 281.841
C 570.405 283.539 571.684 286.298 571.582 288.029
C 570.021 288.759 567.774 288.787 566.072 289.196
C 563.169 289.895 560.295 290.742 557.423 291.559
C 555.877 287.107 555.129 282.015 554.162 277.397
C 554.255 277.26 554.347 277.123 554.44 276.986 Z"
opacity="1" fill="rgb(200,170,108)" fill-rule="evenodd" />
<path d="
M 557.926 293.848
C 561.617 292.345 565.679 291.395 569.548 290.468
C 571.102 290.095 573.12 289.606 572.933 291.874
C 572.313 292.708 570.543 292.719 569.589 292.971
C 567.422 293.541 565.213 293.928 563.046 294.488
C 561.608 294.859 559.957 295.637 558.459 295.634
C 557.822 295.633 557.771 294.765 557.659 294.355
C 557.748 294.186 557.837 294.017 557.926 293.848 Z"
opacity="1" fill="rgb(209,179,136)" fill-rule="evenodd" />
<path d="
M 600.537 322.878
C 607.637 323.38 614.886 322.783 622.009 322.86
C 642.008 323.077 662.009 322.817 682.008 322.916
C 688.323 322.947 694.858 323.492 701.148 322.994
C 702.646 322.876 704.16 323.016 705.662 322.953
C 706.195 322.93 706.752 323.072 706.943 322.518
C 707.646 323.206 710.427 322.828 711.432 322.818
C 711.839 322.814 712.543 322.597 712.77 322.992
C 712.861 325.588 712.796 328.195 712.833 330.792
C 712.846 331.756 712.676 333.027 713.497 333.677
C 703.87 333.048 694.142 333.403 684.497 333.383
C 665.334 333.343 646.165 333.504 627.003 333.361
C 620.09 333.309 613.165 333.242 606.254 333.349
C 604.39 333.378 600.466 332.664 599.432 334.464
C 599.492 332.995 598.022 333.592 596.991 333.591
C 594.648 333.588 592.173 333.807 589.848 333.574
C 590.123 330.217 590.048 326.661 589.835 323.301
C 593.232 322.856 597.279 323.986 600.537 322.878 Z"
opacity="1" fill="rgb(183,151,90)" fill-rule="evenodd" />
<path d="
M 597.981 364.883
C 628.776 365.678 659.696 364.943 690.503 364.939
C 695.836 364.939 701.169 364.938 706.502 364.957
C 709.015 364.967 712.172 365.482 714.574 364.613
C 716.97 363.745 718.128 360.286 717.98 357.971
C 717.832 355.668 716.429 352.557 714.098 351.736
C 711.63 350.867 708.393 351.312 705.812 351.303
C 700.374 351.282 694.936 351.295 689.498 351.296
C 658.668 351.303 627.832 351.378 597.006 351.349
C 595.793 351.306 594.595 351.33 593.385 351.238
C 593.029 350.195 593.088 349.196 593.006 348.108
C 594.632 347.836 596.149 348.031 597.785 348.063
C 598.345 348.074 599.144 348.232 599.513 347.78
C 599.31 343.354 599.506 338.898 599.432 334.464
C 600.466 332.664 604.39 333.378 606.254 333.349
C 613.165 333.242 620.09 333.309 627.003 333.361
C 646.165 333.504 665.334 333.343 684.497 333.383
C 694.142 333.403 703.87 333.048 713.497 333.677
C 714.415 333.664 715.328 333.651 716.246 333.676
C 716.736 334.564 716.391 336.265 716.369 337.264
C 716.306 340.07 716.321 342.886 716.335 345.692
C 716.34 346.687 716.051 348.043 716.469 348.946
C 722.323 353.447 723.565 363.345 716.913 367.972
C 714.148 369.041 710.427 368.349 707.51 368.311
C 701.177 368.228 694.842 368.255 688.508 368.247
C 666.341 368.22 644.174 368.293 622.007 368.239
C 614.884 368.221 607.76 368.17 600.637 368.216
C 598.837 368.227 597.039 368.335 595.24 368.349
C 594.556 368.354 593.512 368.506 592.992 368.02
C 592.802 367.038 592.665 366.013 593.064 365.088
C 594.706 365.068 596.344 364.934 597.981 364.883 Z
M 608.518 346.642
C 608.482 347.397 608.444 347.103 608.523 347.533
C 609.638 347.348 610.799 347.271 611.924 347.39
C 611.988 343.307 611.63 339.13 611.896 335.065
C 611.104 334.528 609.72 334.824 608.815 334.944
C 607.66 338.454 608.901 342.971 608.518 346.642 Z
M 613.904 335.888
C 613.933 339.592 613.827 343.294 613.979 347.006
C 621.245 346.723 628.544 347.272 635.797 347.078
C 635.264 343.567 635.356 339.193 635.756 335.672
C 630.529 335.903 625.243 335.729 620.011 335.673
C 618.358 335.655 615.319 335.075 613.904 335.888 Z"
opacity="1" fill="rgb(67,50,41)" fill-rule="evenodd" />
<path d="
M 604.484 300.128
C 614.066 300.752 623.89 300.112 633.496 300.095
C 650.497 300.066 667.498 300.196 684.499 300.159
C 692.245 300.142 700.353 299.503 707.997 300.09
C 706.76 300.383 706.706 301.109 706.713 302.259
C 706.715 302.473 706.838 303.273 706.638 303.386
C 705.463 303.288 704.212 303.432 703.061 303.268
C 699.798 302.802 696.289 303.107 692.995 303.114
C 686.998 303.127 681 303.124 675.002 303.118
C 656.337 303.1 637.672 303.156 619.006 303.115
C 615.023 303.107 611.04 303.084 607.057 303.113
C 605.242 303.126 603.08 302.864 601.381 303.628
C 598.437 304.95 597.554 308.847 597.564 311.72
C 597.569 313.131 597.737 314.559 598.233 315.886
C 599.721 319.865 603.042 320.162 606.744 320.174
C 612.328 320.193 617.913 320.141 623.496 320.132
C 645.318 320.1 667.188 320.491 689.004 319.989
C 693.655 319.882 698.342 320.355 702.99 320.185
C 704.301 320.038 705.669 319.91 706.988 319.909
C 706.924 320.784 706.914 321.641 706.943 322.518
C 706.752 323.072 706.195 322.93 705.662 322.953
C 704.16 323.016 702.646 322.876 701.148 322.994
C 694.858 323.492 688.323 322.947 682.008 322.916
C 662.009 322.817 642.008 323.077 622.009 322.86
C 614.886 322.783 607.637 323.38 600.537 322.878
C 597.272 322.195 595.413 318.05 594.602 315.211
C 593.153 310.141 594.689 302.803 600.049 300.593
C 601.46 300.011 602.992 300.098 604.484 300.128 Z"
opacity="0.996" fill="rgb(62,43,31)" fill-rule="evenodd" />
<path d="
M 610.471 266.868
C 609.893 267.527 609.399 267.249 608.733 267.661
C 608.592 267.748 608.591 268.769 608.59 268.932
C 608.586 270.019 608.599 271.105 608.613 272.193
C 608.67 276.729 608.102 281.77 608.949 286.232
C 606.013 286.302 603.066 286.059 600.126 286.098
C 599.471 284.565 599.926 281.906 599.927 280.24
C 599.929 275.745 600.19 271.271 599.881 266.777
C 602.824 266.915 605.783 266.755 608.728 266.837
C 609.296 266.908 609.899 266.896 610.471 266.868 Z"
opacity="1" fill="rgb(70,53,42)" fill-rule="evenodd" />
<path d="
M 707.997 300.09
C 700.353 299.503 692.245 300.142 684.499 300.159
C 667.498 300.196 650.497 300.066 633.496 300.095
C 623.89 300.112 614.066 300.752 604.484 300.128
C 604.983 299.86 604.688 297.849 604.684 297.304
C 604.662 294.312 604.44 291.255 604.683 288.272
C 605.002 287.749 605.554 287.898 606.133 287.874
C 607.75 287.806 609.376 287.845 610.996 287.808
C 617.489 287.663 623.998 287.631 630.494 287.607
C 646.563 287.549 662.635 287.318 678.698 287.451
C 689.346 287.539 700.023 288 710.673 287.783
C 711.505 291.739 710.416 296.294 710.687 300.327
C 709.788 300.337 708.903 300.085 707.997 300.09 Z"
opacity="1" fill="rgb(185,150,89)" fill-rule="evenodd" />
<path d="
M 608.518 346.642
C 608.901 342.971 607.66 338.454 608.815 334.944
C 609.72 334.824 611.104 334.528 611.896 335.065
C 611.63 339.13 611.988 343.307 611.924 347.39
C 610.799 347.271 609.638 347.348 608.523 347.533
C 608.444 347.103 608.482 347.397 608.518 346.642 Z"
opacity="0.996" fill="rgb(193,162,112)" fill-rule="evenodd" />
<path d="
M 610.471 266.868
C 611.284 266.792 612.738 266.381 612.838 267.419
C 612.698 268.119 612.737 267.763 612.723 268.486
C 612.42 274.341 613.262 280.245 612.876 286.107
C 612.755 286.383 611.483 285.927 611.248 285.9
C 610.483 285.811 609.7 286.126 608.949 286.232
C 608.102 281.77 608.67 276.729 608.613 272.193
C 608.599 271.105 608.586 270.019 608.59 268.932
C 608.591 268.769 608.592 267.748 608.733 267.661
C 609.399 267.249 609.893 267.527 610.471 266.868 Z"
opacity="0.996" fill="rgb(194,160,116)" fill-rule="evenodd" />
<path d="
M 612.345 462.796
C 619.047 460.307 626.194 458.65 633.014 456.455
C 635.243 455.737 638.993 453.83 641.36 454.46
C 642.009 458.985 641.59 463.67 641.776 468.228
C 642.395 468.51 644.402 466.19 644.871 465.725
C 647.775 462.847 651.009 460.194 654.606 458.227
C 665.647 452.19 681.75 451.672 690.928 461.415
C 697.6 468.499 697.837 478.329 697.813 487.5
C 697.789 496.5 697.789 505.499 697.782 514.499
C 697.778 518.81 697.75 523.125 697.816 527.436
C 697.846 529.338 697.62 531.695 698.879 533.269
C 701.095 536.039 704.995 535.323 707.953 536.421
C 707.867 537.322 707.708 538.952 708.113 539.77
C 706.847 539.466 705.305 539.693 704.008 539.678
C 701.008 539.644 698.008 539.636 695.008 539.624
C 686.416 539.588 677.706 539.218 669.128 539.788
C 668.865 538.756 669.052 537.308 669.208 536.279
C 671.99 536.208 676.542 535.727 678.47 533.488
C 679.724 532.032 679.33 529.759 679.418 527.991
C 679.675 522.836 679.558 517.654 679.545 512.489
C 679.526 504.562 679.508 496.633 679.549 488.706
C 679.576 483.565 679.866 477.668 677.643 472.912
C 670.849 458.38 649.285 463.965 641.842 475.015
C 641.171 479.623 641.829 484.84 641.863 489.505
C 641.931 498.84 641.886 508.175 641.916 517.51
C 641.927 521.005 641.925 524.5 641.94 527.995
C 641.946 529.491 641.759 531.598 642.564 532.915
C 643.871 535.054 646.942 535.63 649.218 535.994
C 650.063 536.129 651.703 535.929 652.336 536.475
C 652.261 537.514 652.114 538.722 652.219 539.748
C 646.967 539.113 641.293 539.692 636.002 539.691
C 628.365 539.689 620.569 539.271 612.955 539.881
C 612.441 539.301 612.917 537.128 612.919 536.316
C 615.781 535.907 621.093 535.735 622.828 533.042
C 623.611 531.826 623.411 530.064 623.485 528.68
C 623.683 524.962 623.601 521.222 623.598 517.499
C 623.59 506.664 623.588 495.829 623.57 484.993
C 623.564 481.324 623.589 477.656 623.42 473.995
C 623.363 472.758 623.542 471.372 623.062 470.196
C 621.484 466.328 615.747 466.328 612.297 466.192
C 612.322 465.061 612.362 463.927 612.345 462.796 Z"
opacity="1" fill="rgb(122,97,53)" fill-rule="evenodd" />
<path d="
M 612.838 267.419
C 613.35 266.876 613.824 266.927 614.515 266.817
C 614.683 267.36 614.64 267.933 614.689 268.508
C 614.145 268.527 613.119 268.923 612.723 268.486
C 612.737 267.763 612.698 268.119 612.838 267.419 Z"
opacity="1" fill="rgb(70,53,45)" fill-rule="evenodd" />
<path d="
M 612.723 268.486
C 613.119 268.923 614.145 268.527 614.689 268.508
C 614.829 272.485 614.573 276.471 614.688 280.452
C 614.741 282.288 614.461 284.444 615.435 286.061
C 614.578 286.086 613.733 286.064 612.876 286.107
C 613.262 280.245 612.42 274.341 612.723 268.486 Z"
opacity="1" fill="rgb(49,29,7)" fill-rule="evenodd" />
<path d="
M 613.904 335.888
C 615.319 335.075 618.358 335.655 620.011 335.673
C 625.243 335.729 630.529 335.903 635.756 335.672
C 635.356 339.193 635.264 343.567 635.797 347.078
C 628.544 347.272 621.245 346.723 613.979 347.006
C 613.827 343.294 613.933 339.592 613.904 335.888 Z"
opacity="1" fill="rgb(202,173,115)" fill-rule="evenodd" />
<path d="
M 614.515 266.817
C 616.179 266.801 617.826 266.713 619.487 266.834
C 618.462 268.026 618.868 270.559 618.866 272.082
C 618.862 276.701 619.096 281.376 618.927 285.984
C 617.661 285.84 616.685 285.697 615.435 286.061
C 614.461 284.444 614.741 282.288 614.688 280.452
C 614.573 276.471 614.829 272.485 614.689 268.508
C 614.64 267.933 614.683 267.36 614.515 266.817 Z"
opacity="1" fill="rgb(193,164,119)" fill-rule="evenodd" />
<path d="
M 619.487 266.834
C 644.29 267.595 669.164 266.252 693.975 266.807
C 693.402 268.345 693.697 270.359 693.7 272
C 693.704 275.138 693.681 278.277 693.709 281.415
C 693.72 282.663 693.637 283.907 693.632 285.154
C 693.631 285.433 693.771 285.952 693.475 286.095
C 677.49 285.837 661.496 285.867 645.504 285.876
C 636.678 285.881 627.739 285.492 618.927 285.984
C 619.096 281.376 618.862 276.701 618.866 272.082
C 618.868 270.559 618.462 268.026 619.487 266.834 Z"
opacity="1" fill="rgb(70,53,45)" fill-rule="evenodd" />
<path d="
M 693.975 266.807
C 695.177 267.027 696.79 266.479 697.829 267.232
C 696.418 273.265 698.927 279.992 697.402 286.086
C 697.109 286.152 696.813 286.04 696.533 285.954
C 695.479 285.733 694.533 286.103 693.475 286.095
C 693.771 285.952 693.631 285.433 693.632 285.154
C 693.637 283.907 693.72 282.663 693.709 281.415
C 693.681 278.277 693.704 275.138 693.7 272
C 693.697 270.359 693.402 268.345 693.975 266.807 Z"
opacity="1" fill="rgb(196,166,123)" fill-rule="evenodd" />
<path d="
M 697.829 267.232
C 698.428 266.901 698.821 266.873 699.493 266.852
C 700.04 267.919 699.721 269.943 699.692 271.15
C 699.606 274.628 699.531 278.012 699.611 281.495
C 699.632 282.388 700.27 285.599 699.462 285.965
C 698.772 286.026 698.089 286.025 697.402 286.086
C 698.927 279.992 696.418 273.265 697.829 267.232 Z"
opacity="1" fill="rgb(46,27,6)" fill-rule="evenodd" />
<path d="
M 699.493 266.852
C 701.331 266.807 703.163 266.854 704.998 266.834
C 703.698 267.168 703.923 269.455 703.928 270.47
C 703.949 274.308 703.948 278.16 704.035 281.99
C 704.058 282.99 703.399 285.653 704.475 286.162
C 703.967 286.161 703.521 286.129 703.036 285.976
C 701.823 285.763 700.61 286.361 699.462 285.965
C 700.27 285.599 699.632 282.388 699.611 281.495
C 699.531 278.012 699.606 274.628 699.692 271.15
C 699.721 269.943 700.04 267.919 699.493 266.852 Z"
opacity="0.996" fill="rgb(191,161,112)" fill-rule="evenodd" />
<path d="
M 704.998 266.834
C 707.865 266.749 710.794 266.672 713.66 266.79
C 713.987 271.308 713.7 275.963 713.662 280.495
C 713.648 282.152 713.235 284.643 713.683 286.204
C 710.741 285.845 707.438 286.025 704.475 286.162
C 703.399 285.653 704.058 282.99 704.035 281.99
C 703.948 278.16 703.949 274.308 703.928 270.47
C 703.923 269.455 703.698 267.168 704.998 266.834 Z"
opacity="1" fill="rgb(68,51,43)" fill-rule="evenodd" />

</svg>