<svg xmlns="http://www.w3.org/2000/svg"
shape-rendering="geometricPrecision"
width="4000" height="4000" viewBox="0 0 1024 1024">
  <metadata>null</metadata>

<path d="
M 46.294 649.356
C 53.674 649.753 61.06 649.209 68.434 649.356
C 68.421 652.216 68.989 655.084 69.137 657.942
C 69.268 660.461 69.011 663.207 69.566 665.671
C 70.379 664.982 70.698 663.764 71.317 662.903
C 72.163 661.725 73.191 660.648 74.166 659.578
C 77.92 655.458 82.368 652.487 87.495 650.348
C 92.908 648.088 98.492 647.411 104.275 646.898
C 108.598 646.514 113.076 647.089 117.315 647.896
C 120.784 648.556 124.183 649.697 127.326 651.316
C 130.26 652.827 133.055 654.594 135.439 656.897
C 149.21 670.196 146.639 692.682 146.719 710.004
C 146.774 721.669 146.774 733.336 146.753 745.002
C 146.748 747.79 146.659 750.597 146.744 753.383
C 146.757 753.82 147.029 755.694 146.642 755.949
C 143.497 755.657 140.17 755.946 137.007 755.948
C 132.294 755.95 127.546 755.749 122.844 756.019
C 122.979 739.862 122.755 723.673 122.661 707.509
C 122.606 698.225 123.613 688.048 119.64 679.39
C 116.695 672.973 110.809 669.947 104.082 668.907
C 92.343 667.093 80.234 671.236 74.447 682.073
C 70.326 689.789 70.653 698.063 70.637 706.532
C 70.616 717.855 70.684 729.178 70.679 740.502
C 70.677 744.001 70.684 747.501 70.674 751
C 70.669 752.533 71.045 754.552 70.577 756.021
C 62.923 755.29 54.6 755.475 46.93 755.953
C 45.882 754.219 46.691 750.043 46.687 748.007
C 46.676 741.342 46.633 734.678 46.597 728.013
C 46.503 710.34 46.497 692.666 46.413 674.993
C 46.384 668.845 46.304 662.698 46.358 656.55
C 46.378 654.229 45.896 651.63 46.294 649.356 Z"
opacity="1" fill="rgb(12,20,59)" fill-rule="evenodd" />
<path d="
M 168.474 699.11
C 169.492 682.397 176.98 666.264 191.045 656.641
C 197.605 652.153 205.562 649.406 213.341 648.046
C 234.68 644.316 257.361 650.158 270.788 667.978
C 273.232 671.221 275.307 674.859 276.835 678.627
C 280.263 687.082 281.942 696.368 281.587 705.493
C 280.987 720.961 274.29 737.568 261.399 746.872
C 236.909 764.548 197.95 762.717 179.049 737.509
C 176.353 733.914 174.08 729.83 172.47 725.632
C 169.277 717.31 167.933 707.997 168.474 699.11 Z
M 192.954 698.114
C 191.986 708.233 194.111 719.744 200.999 727.549
C 212.77 740.887 236.505 740.988 248.681 728.043
C 253.988 722.4 256.212 714.463 257.075 706.968
C 258.421 695.267 254.576 681.256 244.879 673.903
C 233.55 665.313 214.874 665.819 204.109 675.037
C 197.509 680.688 193.772 689.576 192.954 698.114 Z"
opacity="1" fill="rgb(11,19,58)" fill-rule="evenodd" />
<path d="
M 299.44 696.608
C 300.665 681.54 307.741 667.538 319.649 658.165
C 325.952 653.203 333.915 649.93 341.767 648.478
C 358.441 645.395 377.647 647.201 391.48 657.918
C 406.923 669.882 413.699 689.465 412.216 708.615
C 410.995 724.367 402.732 739.693 389.71 748.726
C 367.242 764.311 332.159 761.397 313.213 741.605
C 301.881 729.767 298.143 712.563 299.44 696.608 Z
M 323.487 698.619
C 322.286 710.462 326.092 724.063 335.858 731.539
C 348.559 741.262 369.182 739.16 379.859 727.519
C 384.699 722.241 387.023 714.728 387.751 707.75
C 389.099 694.818 385.148 680.936 374.116 673.144
C 362.784 665.139 344.151 666.218 334.066 675.652
C 327.665 681.64 324.357 690.036 323.487 698.619 Z"
opacity="1" fill="rgb(11,19,57)" fill-rule="evenodd" />
<path d="
M 324.83 338.3
C 328.004 338.274 331.326 338.011 334.484 338.357
C 333.988 351.323 334.692 364.501 334.68 377.497
C 334.649 408.998 334.714 440.498 334.73 471.999
C 334.736 485 334.726 498.001 334.742 511.002
C 334.747 514.668 334.747 518.332 334.724 521.998
C 334.714 523.508 334.261 525.632 334.831 527.026
C 348.538 529.871 362.067 533.746 375.665 537.058
C 396.841 542.214 417.989 547.531 439.118 552.871
C 449.901 555.596 460.713 558.193 471.497 560.917
C 474.867 561.768 478.255 562.549 481.604 563.481
C 482.799 563.814 484.425 563.835 485.444 564.512
C 487.745 568.566 492.632 571.587 496.827 573.276
C 506.531 577.183 518.214 577.429 527.776 572.926
C 530.488 571.649 533.114 569.888 535.333 567.871
C 536.425 566.88 537.141 565.221 538.487 564.565
C 540.177 563.742 542.353 563.481 544.167 562.989
C 547.868 561.986 551.602 561.024 555.345 560.189
C 565.07 558.019 574.714 555.364 584.382 552.953
C 604.711 547.883 624.999 542.651 645.336 537.615
C 659.805 534.032 674.49 530.942 688.804 526.787
C 688.688 484.526 688.774 442.262 688.79 400
C 688.797 379.47 689.262 358.866 688.761 338.344
C 692.087 338.244 695.412 338.236 698.74 338.196
C 699.253 342.857 698.827 347.811 698.845 352.502
C 698.882 362.169 698.842 371.834 698.812 381.501
C 698.729 408.667 698.762 435.836 698.838 463.002
C 698.883 479.17 698.862 495.337 698.866 511.505
C 698.868 516.671 698.871 521.838 698.819 527.004
C 698.794 529.41 699.232 532.323 698.695 534.665
C 688.026 537.92 676.954 540.102 666.121 542.783
C 640.44 549.139 614.834 555.767 589.157 562.142
C 579.221 564.608 569.286 567.086 559.343 569.53
C 554.626 570.69 549.715 571.516 545.063 572.885
C 542.68 573.587 540.951 576.739 538.993 578.272
C 535.234 581.215 530.681 583.267 526.162 584.709
C 513.504 588.746 497.21 587.059 486.168 579.456
C 483.568 577.666 481.504 575.41 479.384 573.1
C 478.374 572.559 476.946 572.56 475.822 572.275
C 473.258 571.624 470.702 570.945 468.131 570.323
C 459.682 568.281 451.233 566.206 442.805 564.079
C 416.991 557.563 391.164 551.109 365.344 544.613
C 356.543 542.399 347.71 540.324 338.914 538.09
C 334.357 536.933 329.312 536.334 324.996 534.438
C 324.408 532.878 324.754 530.678 324.731 529.012
C 324.677 525.011 324.705 521.01 324.717 517.009
C 324.756 503.509 324.762 490.008 324.758 476.508
C 324.747 430.441 325.083 384.363 324.83 338.3 Z"
opacity="1" fill="rgb(22,61,108)" fill-rule="evenodd" />
<path d="
M 343.263 321.245
C 356.996 322.207 370.742 325.553 384.164 328.477
C 400.832 332.109 417.088 337.044 433.249 342.475
C 448.523 347.607 463.861 353.294 478.191 360.717
C 478.491 366.597 478.157 372.601 478.148 378.495
C 478.132 389.495 478.166 400.495 478.15 411.496
C 478.104 442.705 478.231 473.915 478.089 505.124
C 478.038 516.411 478.194 527.698 478.169 538.996
C 478.163 541.668 478.179 544.338 478.196 547.01
C 478.198 547.305 478.333 549.271 478.117 549.315
C 449.041 533.408 417.884 522.024 386.372 512.016
C 376.34 508.831 366.057 506.164 355.801 503.814
C 352.615 503.084 349.398 502.456 346.234 501.641
C 345.462 501.442 343.976 501.611 343.398 501.122
C 342.748 486.481 343.36 471.659 343.355 457
C 343.344 426.336 343.361 395.671 343.316 365.006
C 343.294 350.439 343.701 335.804 343.263 321.245 Z
M 368.795 357.092
C 368.803 358.79 368.048 361.986 368.877 363.467
C 376.485 364.306 384.24 367.079 391.616 369.067
C 405.61 372.838 419.328 377.233 433.032 381.926
C 437.545 383.471 442.032 385.158 446.497 386.839
C 447.987 387.399 449.696 388.49 451.215 388.819
C 451.2 386.573 451.112 384.262 451.297 382.024
C 450.259 380.893 447.219 380.517 445.759 379.961
C 440.733 378.048 435.642 376.323 430.58 374.511
C 410.537 367.333 389.709 361.125 368.795 357.092 Z
M 368.837 377.322
C 368.511 379.377 368.666 381.562 368.702 383.637
C 375.917 384.863 383.082 387.215 390.132 389.157
C 404.083 392.999 417.779 397.453 431.533 401.924
C 436.019 403.382 440.446 405.109 444.853 406.789
C 446.877 407.561 449.014 408.746 451.102 409.26
C 450.784 407.049 451.091 404.601 451.089 402.366
C 447.464 400.688 443.397 399.584 439.623 398.255
C 428.509 394.343 417.381 390.549 406.084 387.186
C 397.82 384.725 389.53 382.415 381.192 380.227
C 377.15 379.167 372.987 377.833 368.837 377.322 Z
M 368.875 397.464
C 368.833 397.492 368.79 397.519 368.748 397.547
C 368.757 399.107 368.629 400.665 368.661 402.225
C 368.671 402.716 368.555 403.592 368.901 403.939
C 371.53 404.222 374.263 405.25 376.812 405.952
C 381.4 407.216 386.015 408.376 390.602 409.645
C 404.509 413.493 418.301 417.784 431.922 422.547
C 438.398 424.811 444.726 427.727 451.259 429.782
C 451.084 427.53 451.36 425.211 451.054 422.978
C 445.01 420.406 438.665 418.375 432.441 416.287
C 420.523 412.29 408.675 408.266 396.566 404.849
C 391.132 403.315 385.673 401.862 380.247 400.305
C 376.585 399.255 372.673 397.847 368.875 397.464 Z"
opacity="1" fill="rgb(11,19,55)" fill-rule="evenodd" />
<path d="
M 346.823 506.892
C 356.781 508.791 366.722 512.219 376.424 515.159
C 395.631 520.979 414.705 527.262 433.379 534.633
C 439.88 537.198 446.333 539.865 452.729 542.673
C 454.223 543.329 455.713 544.051 457.26 544.574
C 457.568 544.679 458.903 545.14 458.714 545.631
C 456.214 546.058 452.664 543.928 450.265 543.208
C 442.621 540.918 435.184 537.979 427.522 535.723
C 406.465 529.524 385.336 523.703 364.171 517.874
C 358.431 516.294 352.701 514.387 346.941 512.949
C 346.126 511.54 346.834 508.515 346.823 506.892 Z"
opacity="1" fill="rgb(194,193,192)" fill-rule="evenodd" />
<path d="
M 346.631 517.141
C 349.745 517.382 352.831 518.519 355.839 519.332
C 361.935 520.978 368.011 522.678 374.086 524.401
C 393.255 529.837 412.412 535.516 431.402 541.526
C 437.855 543.569 444.313 545.6 450.744 547.698
C 452.72 548.342 456.922 548.539 457.965 550.573
C 457.249 550.919 456.392 550.397 455.691 550.24
C 453.995 549.859 452.288 549.425 450.596 548.996
C 443.667 547.242 436.691 545.609 429.782 543.791
C 410.547 538.729 391.129 534.262 371.787 529.609
C 366.537 528.346 361.301 526.97 356.022 525.829
C 353.123 525.202 349.36 524.872 346.7 523.619
C 346.718 521.468 346.763 519.287 346.631 517.141 Z"
opacity="1" fill="rgb(192,192,191)" fill-rule="evenodd" />
<path d="
M 362.22 295.794
C 374.863 296.533 387.587 300.497 399.784 303.658
C 426.327 310.536 452.241 319.792 477.047 331.478
C 485.184 335.311 493.303 339.911 500.659 345.092
C 502.559 346.43 504.407 347.806 506.224 349.252
C 506.913 349.8 507.944 350.41 508.364 351.209
C 508.851 352.133 508.616 353.684 508.639 354.697
C 508.706 357.682 508.751 360.741 508.516 363.72
C 507.769 363.978 506.449 363.698 505.694 363.511
C 503.906 363.067 501.349 361.792 500.571 360.016
C 499.6 357.8 499.791 354.94 497.837 353.243
C 493.421 349.408 487.835 353.304 483.806 355.22
C 482.601 355.27 481.365 354.219 480.359 353.648
C 478.093 352.361 475.683 351.33 473.332 350.215
C 464.923 346.227 456.166 342.757 447.464 339.467
C 427.746 332.011 407.479 326.066 386.891 321.506
C 378.875 319.731 370.698 317.801 362.542 316.814
C 362.143 316.567 362.277 315.774 362.277 315.355
C 362.277 314.07 362.271 312.784 362.253 311.499
C 362.181 306.275 362.442 301.011 362.22 295.794 Z"
opacity="1" fill="rgb(191,191,192)" fill-rule="evenodd" />
<path d="
M 380.918 273.026
C 381.248 272.222 382.183 272.676 382.932 272.857
C 384.88 273.325 386.76 274.024 388.676 274.604
C 396.645 277.016 404.418 279.741 412.234 282.606
C 437.867 292.005 461.971 305.628 483.211 322.781
C 488.285 326.878 493.089 331.105 497.624 335.803
C 498.792 337.012 499.866 338.286 500.987 339.533
C 501.285 339.865 501.938 340.247 501.93 340.731
C 487.474 329.365 470.601 321.487 453.697 314.423
C 439.477 308.48 425.137 303.218 410.395 298.688
C 403.505 296.571 396.438 294.699 389.437 292.988
C 386.791 292.342 383.926 292.015 381.343 291.195
C 381.009 288.783 381.217 286.151 381.156 283.709
C 381.068 280.173 380.754 276.558 380.918 273.026 Z"
opacity="1" fill="rgb(192,192,192)" fill-rule="evenodd" />
<path d="
M 402.779 251.351
C 405.482 251.899 408.085 253.26 410.618 254.323
C 416.776 256.906 422.733 259.819 428.66 262.891
C 451.99 274.982 473.186 291.547 489.932 311.81
C 494.421 317.241 498.296 323.039 502.241 328.871
C 504.126 331.658 506.71 334.78 507.84 337.971
C 506.525 337.501 505.364 336.066 504.42 335.086
C 502.303 332.887 500.334 330.556 498.176 328.394
C 491.355 321.557 483.963 315.312 476.345 309.39
C 454.511 292.417 429.442 279.293 403.461 269.905
C 402.653 269.074 403.188 266.18 403.16 265.004
C 403.052 260.512 403.297 255.805 402.779 251.351 Z"
opacity="1" fill="rgb(192,193,194)" fill-rule="evenodd" />
<path d="
M 435.171 649.196
C 440.416 649.468 445.753 649.403 451.007 649.314
C 452.77 649.283 456.313 648.6 457.857 649.413
C 458.119 654.275 458.179 659.129 458.325 664.002
C 458.371 665.535 457.945 668.851 458.741 670.174
C 460.83 666.654 462.365 663.09 465.048 659.893
C 470.317 653.616 478.044 649.635 486.008 648.043
C 489.053 647.434 492.021 647.252 495.121 647.24
C 495.578 647.238 497.577 647.032 497.738 647.403
C 497.539 652.915 497.679 658.488 497.701 664.007
C 497.708 665.66 498.466 669.081 497.679 670.513
C 494.939 671.034 492.015 670.599 489.233 670.863
C 484.711 671.293 480.047 672.6 476.003 674.667
C 457.73 684.005 459.636 707.171 459.67 724.503
C 459.679 729.336 459.67 734.169 459.694 739.002
C 459.713 743.002 459.7 747.002 459.691 751.003
C 459.688 752.44 460.216 754.681 459.626 755.997
C 451.693 755.037 443.501 756.634 435.565 755.843
C 435.057 750.144 435.544 744.226 435.548 738.493
C 435.556 727.827 435.442 717.162 435.398 706.496
C 435.342 692.999 435.25 679.503 435.279 666.005
C 435.291 660.451 434.814 654.726 435.171 649.196 Z"
opacity="1" fill="rgb(11,18,55)" fill-rule="evenodd" />
<path d="
M 485.982 400.032
C 486.022 399.78 485.848 399.298 486.102 399.276
C 486.602 399.233 486.9 399.886 487.326 400.15
C 488.784 401.055 490.101 402.17 491.602 403.013
C 495.49 405.195 499.736 406.67 504.115 407.493
C 511.651 408.909 520.657 407.941 527.709 404.966
C 531.138 403.52 534.005 401.116 537.33 399.613
C 537.205 403.017 537.398 406.431 537.302 409.837
C 534.476 412.698 530.169 414.581 526.464 415.968
C 516.075 419.857 505.224 419.555 495.054 415.144
C 492.076 413.853 488.439 412.007 486.186 409.623
C 485.649 406.624 485.908 403.078 485.982 400.032 Z"
opacity="1" fill="rgb(32,105,160)" fill-rule="evenodd" />
<path d="
M 486.053 418.617
C 486.052 418.187 486.051 417.757 486.049 417.328
C 494.625 423.817 505.604 427.414 516.393 426.087
C 523.825 425.173 531.15 421.842 537.273 417.669
C 537.993 437.057 537.363 456.601 537.38 476.006
C 537.386 483.004 537.348 490.001 537.33 496.999
C 537.321 500.268 537.826 504.023 537.192 507.23
C 535.351 509.682 531.787 511.262 529.059 512.458
C 518.959 516.887 507.268 517.551 496.89 513.578
C 493.412 512.246 488.451 510.292 486.189 507.161
C 485.446 503.802 485.865 499.707 485.874 496.273
C 485.89 490.349 485.831 484.424 485.838 478.499
C 485.862 458.545 486.194 438.563 486.053 418.617 Z"
opacity="1" fill="rgb(31,104,160)" fill-rule="evenodd" />
<path d="
M 485.996 514.78
C 487.577 515.138 489.171 516.932 490.589 517.766
C 493.402 519.421 496.35 520.767 499.458 521.777
C 508.166 524.605 518.175 524.233 526.651 520.752
C 530.414 519.206 533.598 516.86 537.188 515.041
C 537.54 515.705 537.289 517.334 537.293 518.104
C 537.304 520.476 537.49 522.926 537.166 525.278
C 526.276 534.479 510.517 536.314 497.389 531.579
C 493.445 530.156 489.241 528.236 486.207 525.256
C 485.161 522.274 486.109 517.937 485.996 514.78 Z"
opacity="1" fill="rgb(33,107,163)" fill-rule="evenodd" />
<path d="
M 485.953 534.115
C 486.143 533.531 485.988 533.854 486.532 533.21
C 490.488 535.007 493.83 537.735 498.001 539.179
C 508.041 542.655 518.456 542.412 528.191 537.97
C 531.4 536.505 534.257 534.499 537.203 532.594
C 537.529 534.489 537.281 536.573 537.296 538.495
C 537.326 542.586 537.353 546.677 537.405 550.768
C 537.435 553.112 537.866 556.093 536.573 558.182
C 534.574 561.415 531.312 563.696 528.002 565.421
C 519.558 569.823 508.828 570.14 499.883 567.067
C 495.375 565.519 490.804 563.4 487.869 559.469
C 485.615 556.448 485.872 553.152 485.883 549.541
C 485.899 544.402 485.839 539.252 485.953 534.115 Z"
opacity="1" fill="rgb(32,105,161)" fill-rule="evenodd" />
<path d="
M 486.372 363.545
C 487.71 360.275 490.862 357.841 494.529 358.821
C 494.565 360.427 494.729 362.571 495.415 364.032
C 496.514 366.37 499.12 367.86 501.376 368.806
C 506.683 371.029 513.165 371.23 518.721 369.785
C 521.848 368.971 525.423 367.802 527.397 365.063
C 528.78 363.144 528.957 360.879 528.974 358.586
C 530.439 358.553 531.929 358.557 533.36 358.905
C 534.684 359.997 535.759 361.498 536.901 362.781
C 538.036 365.003 537.326 369.035 537.338 371.499
C 537.371 378.197 537.867 385.219 537.254 391.884
C 536.735 392.835 535.402 393.391 534.517 393.95
C 532.404 395.286 530.308 396.373 528.051 397.432
C 518.227 402.038 506.552 401.442 496.529 397.93
C 493.343 396.814 487.92 394.622 486.147 391.547
C 485.74 385.919 486.074 380.143 486.069 374.499
C 486.065 370.968 485.595 367.006 486.372 363.545 Z"
opacity="1" fill="rgb(31,104,160)" fill-rule="evenodd" />
<path d="
M 506.953 694.595
C 508.998 683.663 511.848 672.823 519.516 664.304
C 531.948 650.494 551.065 644.371 569.298 648.031
C 574.624 649.101 579.893 650.874 584.407 653.986
C 587.965 656.44 590.322 659.314 593.004 662.574
C 593.227 661.414 592.903 660.17 592.927 658.992
C 592.996 655.674 592.899 652.347 592.922 649.028
C 592.997 637.848 592.888 626.663 593.034 615.493
C 593.071 612.673 593.114 609.828 593.058 607.003
C 593.029 605.513 592.656 603.885 592.855 602.425
C 600.788 602.793 608.727 602.273 616.656 602.56
C 617.15 603.851 616.807 605.623 616.795 606.999
C 616.766 610.166 616.794 613.335 616.791 616.503
C 616.781 627.005 616.863 637.508 616.894 648.01
C 616.966 672.176 616.916 696.342 616.946 720.508
C 616.956 728.675 616.952 736.842 616.981 745.008
C 616.994 748.622 617.542 752.469 617.107 756.054
C 612.078 756.001 607.035 756.027 602.002 756.054
C 599.663 756.067 597.114 756.437 594.803 756.168
C 594.498 751.145 595.232 745.307 594.105 740.413
C 580.949 763.295 545.657 763.645 526.69 748.088
C 510.854 735.099 504.61 714.581 506.953 694.595 Z
M 530.929 697.615
C 529.637 708.975 532.958 723.188 542.106 730.731
C 553.988 740.53 573.963 740.581 584.844 729.048
C 589.764 723.835 592.342 716.039 593.18 709.049
C 594.678 696.563 592.256 682.548 581.872 674.303
C 570.835 665.541 552.612 665.877 541.907 674.997
C 535.273 680.649 531.893 689.144 530.929 697.615 Z"
opacity="1" fill="rgb(33,102,162)" fill-rule="evenodd" />
<path d="
M 515.106 338.625
C 520.642 329.689 526.019 320.737 532.602 312.486
C 548.966 291.972 571.042 275.156 594.27 263.169
C 599.998 260.213 605.748 257.39 611.633 254.76
C 614.537 253.463 617.583 251.832 620.676 251.08
C 621.085 257.074 621.046 263.641 620.55 269.627
C 620.098 270.187 619.232 270.293 618.601 270.585
C 616.745 271.446 614.77 272.179 612.846 272.874
C 607.126 274.942 601.503 277.496 595.982 280.04
C 579.155 287.794 563.978 297.496 548.89 308.17
C 540.591 314.042 532.856 321.326 525.673 328.498
C 523.208 330.96 520.944 333.616 518.539 336.134
C 517.675 337.039 516.869 337.997 516.001 338.898
C 515.643 339.271 514.987 339.855 514.923 339.034
C 514.984 338.898 515.045 338.761 515.106 338.625 Z"
opacity="1" fill="rgb(191,192,194)" fill-rule="evenodd" />
<path d="
M 514.811 352.027
C 516.125 349.035 519.77 347.389 522.24 345.464
C 529.748 339.613 538.553 335.199 547.075 331.034
C 571.999 318.853 598.542 310.373 625.271 303.215
C 633.594 300.985 642.002 299.073 650.471 297.494
C 654.032 296.83 657.935 295.589 661.568 295.693
C 661.202 300.085 661.409 304.755 661.404 309.183
C 661.4 311.643 660.995 314.355 661.29 316.783
C 652.038 318.747 642.672 320.148 633.464 322.342
C 601.438 329.973 569.58 339.859 540.425 355.28
C 539.099 355.219 537.534 353.746 536.37 353.115
C 534.11 351.891 529.566 350.703 527.119 352.005
C 525.775 352.72 524.224 354.591 523.824 356.059
C 523.462 357.387 523.683 358.943 523.037 360.19
C 522.274 361.662 520.452 362.485 518.996 363.067
C 517.995 363.468 515.856 364.225 514.868 363.546
C 514.493 359.79 514.163 355.767 514.811 352.027 Z"
opacity="1" fill="rgb(189,190,191)" fill-rule="evenodd" />
<path d="
M 523.832 338.828
C 524.443 338.32 524.524 337.621 525.016 337.026
C 526.156 335.649 527.603 334.357 528.871 333.081
C 532.542 329.389 536.519 325.803 540.607 322.576
C 562.223 305.508 586.018 292.302 611.78 282.614
C 618.834 279.961 625.974 277.585 633.135 275.244
C 636.072 274.283 640.005 272.19 643.083 272.2
C 642.524 276.599 642.888 281.632 642.885 286.109
C 642.884 287.746 643.181 289.623 642.824 291.223
C 634.783 293.353 626.604 294.979 618.565 297.152
C 599.057 302.423 579.971 309.326 561.598 317.722
C 553.013 321.646 544.18 325.781 536.122 330.711
C 533.25 332.468 530.38 334.248 527.592 336.137
C 526.636 336.785 525.663 337.462 524.79 338.221
C 524.619 338.369 523.949 339.121 523.832 338.828 Z"
opacity="1" fill="rgb(190,192,193)" fill-rule="evenodd" />
<path d="
M 545.351 360.907
C 547.618 358.964 550.947 357.988 553.624 356.732
C 559.861 353.805 566.296 351.381 572.683 348.819
C 596.674 339.198 622.1 332.294 647.358 326.969
C 654.487 325.466 661.632 324.167 668.788 322.801
C 671.341 322.313 673.925 321.913 676.509 321.623
C 677.604 321.499 678.83 321.131 679.92 321.351
C 679.474 326.851 679.855 332.49 679.885 338.005
C 679.932 346.839 679.87 355.675 679.9 364.509
C 679.998 393.677 679.857 422.845 679.966 452.012
C 680.005 462.697 680.058 473.382 680.096 484.067
C 680.116 489.617 680.422 495.27 680.082 500.808
C 678.786 501.598 676.462 501.537 674.973 501.85
C 671.574 502.563 668.236 503.589 664.858 504.395
C 653.963 506.995 642.993 509.925 632.356 513.456
C 614.191 519.486 596.069 525.654 578.487 533.272
C 567.247 538.142 556.599 544.281 545.479 549.323
C 545.094 547.117 545.549 544.494 545.543 542.245
C 545.533 537.599 545.412 532.955 545.438 528.309
C 545.514 514.534 545.422 500.768 545.395 486.994
C 545.344 460.994 545.435 434.993 545.412 408.994
C 545.399 392.971 545.084 376.927 545.351 360.907 Z
M 572.517 382.029
C 572.369 382.107 572.22 382.184 572.071 382.262
C 572.387 384.272 572.364 386.569 572.19 388.598
C 572.539 388.954 573.051 388.468 573.462 388.269
C 574.57 387.735 575.668 387.288 576.83 386.882
C 582.037 385.062 587.235 383.228 592.435 381.389
C 606.198 376.52 620.239 372.436 634.285 368.455
C 638.94 367.136 643.626 365.957 648.318 364.781
C 650.482 364.238 652.946 363.198 655.179 363.126
C 655.197 361.07 655.29 358.921 655.085 356.875
C 652.755 356.926 650.57 357.789 648.32 358.293
C 643.11 359.459 637.985 360.931 632.816 362.247
C 612.45 367.432 591.991 374.111 572.517 382.029 Z
M 572.376 402.493
C 572.314 402.607 572.253 402.721 572.191 402.835
C 572.326 404.857 572.349 406.984 572.283 409.01
C 581.989 406.324 591.379 402.011 600.995 398.941
C 618.92 393.218 636.981 388.158 655.151 383.292
C 655.164 381.652 655.169 380.011 655.203 378.37
C 655.211 378.025 655.407 377.102 655.155 376.892
C 641.367 379.794 627.727 383.865 614.31 388.148
C 600.23 392.642 586.132 397.063 572.376 402.493 Z
M 572.368 423.441
C 572.481 425.456 572.5 427.569 572.379 429.581
C 572.482 429.912 574.568 428.695 575.064 428.515
C 577 427.815 578.929 427.049 580.885 426.414
C 586.924 424.454 592.825 422.073 598.864 420.104
C 611.278 416.055 623.657 412.086 636.227 408.529
C 642.41 406.779 648.896 404.635 655.259 403.715
C 655.041 401.558 655.122 399.279 655.069 397.119
C 646.716 398.509 638.397 401.371 630.27 403.724
C 617.619 407.388 605.072 411.248 592.66 415.659
C 587.611 417.454 582.537 419.184 577.531 421.099
C 576.214 421.603 573.132 422.249 572.368 423.441 Z"
opacity="1" fill="rgb(31,105,162)" fill-rule="evenodd" />
<path d="
M 566.362 544.995
C 568.494 543.29 571.28 542.651 573.704 541.48
C 581.802 537.567 590.25 534.453 598.667 531.299
C 624.128 521.757 650.234 513.144 676.671 506.709
C 677.022 508.519 677.015 511.122 676.785 512.941
C 675.024 514.093 671.817 514.342 669.776 514.929
C 663.506 516.732 657.114 518.111 650.848 519.931
C 631.55 525.537 612.2 531.004 592.889 536.552
C 586.629 538.35 580.312 540.326 574.258 542.727
C 572.308 543.5 568.48 545.734 566.362 544.995 Z"
opacity="1" fill="rgb(193,193,192)" fill-rule="evenodd" />
<path d="
M 566.854 549.966
C 570.273 548.59 573.793 547.527 577.326 546.5
C 587.542 543.53 597.582 539.941 607.82 536.999
C 622.016 532.921 636.006 528.201 650.254 524.276
C 656.921 522.439 663.516 520.378 670.212 518.648
C 671.808 518.235 673.406 517.708 675.018 517.377
C 675.657 517.246 676.298 516.946 676.796 517.441
C 676.817 519.422 676.79 521.401 676.76 523.381
C 676.386 523.833 675.412 523.869 674.879 524.004
C 673.307 524.402 671.713 524.713 670.137 525.104
C 663.998 526.625 657.728 527.871 651.672 529.699
C 646.74 531.189 641.634 532.182 636.626 533.382
C 622.335 536.806 607.934 540.088 593.747 543.907
C 587.861 545.492 581.922 546.909 576.023 548.409
C 573.246 549.115 569.566 550.866 566.704 550.541
C 566.754 550.349 566.804 550.158 566.854 549.966 Z"
opacity="1" fill="rgb(195,194,193)" fill-rule="evenodd" />
<path d="
M 639.466 700.11
C 640.004 690.689 642.353 681.579 647.143 673.393
C 663.887 644.776 706.083 638.746 731.954 658.408
C 745.647 668.815 753.394 686.698 752.601 703.798
C 752.126 714.034 749.798 723.771 744.498 732.64
C 728.509 759.389 688.211 766.563 662.718 749.229
C 646.626 738.286 638.366 719.356 639.466 700.11 Z
M 663.978 698.117
C 662.723 709.497 665.581 722.526 674.621 730.193
C 686.655 740.4 707.915 739.828 719.152 728.54
C 724.434 723.233 727.19 715.079 727.979 707.772
C 729.143 696.997 726.345 684.094 718.212 676.421
C 707.046 665.885 687.14 664.988 675.308 674.895
C 668.509 680.588 664.933 689.465 663.978 698.117 Z"
opacity="1" fill="rgb(32,102,162)" fill-rule="evenodd" />
<path d="
M 774.801 649.299
C 782.386 649.282 790.023 649.145 797.607 649.323
C 798.619 654.649 797.228 660.686 798.721 665.906
C 799.196 665.943 799.32 665.259 799.521 664.915
C 800.107 663.91 800.708 662.895 801.424 661.976
C 804.123 658.508 807.651 655.428 811.416 653.169
C 821.704 646.996 835.304 645.783 846.922 648.13
C 850.15 648.782 853.251 649.771 856.185 651.267
C 858.931 652.667 861.605 654.373 863.864 656.484
C 877.394 669.122 875.689 689.123 875.656 706.001
C 875.643 712.668 875.674 719.335 875.666 726.001
C 875.657 733.334 875.657 740.667 875.65 748
C 875.648 749.972 875.643 751.946 875.696 753.917
C 875.709 754.389 875.913 755.583 875.61 755.977
C 867.768 755.855 859.878 755.778 852.036 755.938
C 851.088 754.855 851.697 751.742 851.711 750.332
C 851.758 745.56 851.725 740.781 851.668 736.01
C 851.525 724.076 851.458 712.129 851.407 700.199
C 851.376 692.8 851.907 684.894 848.066 678.24
C 844.293 671.703 837.654 669.083 830.406 668.633
C 819.72 667.971 809.178 671.675 803.707 681.405
C 798.396 690.852 798.928 702.133 798.924 712.651
C 798.917 727.025 798.286 741.511 798.804 755.873
C 790.928 755.795 782.753 755.222 774.904 755.943
C 774.308 753.563 774.817 750.461 774.817 748
C 774.818 742.166 774.84 736.331 774.855 730.497
C 774.902 712.329 774.88 694.164 774.874 675.996
C 774.872 670.872 774.856 665.742 774.978 660.619
C 775.066 656.926 775.473 652.943 774.801 649.299 Z"
opacity="1" fill="rgb(33,100,159)" fill-rule="evenodd" />
<path d="
M 894.891 747.013
C 896.381 744.555 897.343 741.684 898.475 739.047
C 899.862 735.816 901.399 732.553 902.402 729.179
C 912.749 736.974 927.707 739.973 940.428 738.754
C 946.948 738.13 954.314 734.87 954.268 727.305
C 954.199 715.699 939.829 713.958 931.315 711.319
C 919.643 707.701 906.876 704.08 900.952 692.368
C 899.953 690.395 899.183 688.159 898.724 685.996
C 898.078 682.955 897.927 679.768 898.078 676.669
C 898.227 673.609 898.848 670.704 899.974 667.856
C 908.1 647.296 933.895 644.925 952.789 648.53
C 958.12 649.547 963.369 650.981 968.402 653.039
C 969.568 653.515 972.864 654.465 973.474 655.536
C 972.039 660.128 969.959 664.64 968.344 669.199
C 967.937 670.348 967.568 671.507 967.177 672.66
C 967.047 673.042 966.966 674.017 966.661 674.287
C 956.451 668.347 942.538 665.111 930.83 667.393
C 928.741 667.8 926.688 668.349 924.91 669.586
C 920.477 672.67 919.217 678.488 922.227 682.995
C 926.53 689.439 936.097 690.942 943.045 692.842
C 951.44 695.137 961.056 697.875 967.789 703.657
C 972.634 707.819 975.697 713.955 976.879 720.169
C 977.668 724.313 977.559 728.691 976.658 732.806
C 976.113 735.297 975.062 737.688 973.869 739.927
C 964.791 756.971 943.062 759.456 925.823 758.023
C 922.487 757.746 919.216 757.097 915.954 756.375
C 910.259 755.114 904.672 753.04 899.382 750.607
C 898.153 750.041 895.096 749.303 894.559 748.094
C 894.747 747.356 894.636 747.717 894.891 747.013 Z"
opacity="1" fill="rgb(32,101,161)" fill-rule="evenodd" />

</svg>